# MagicaVoxel @ Ephtracy

# group
o 

# material
mtllib bureau.mtl
usemtl palette

# normals
vn -1 0 0
vn 1 0 0
vn 0 0 1
vn 0 0 -1
vn 0 -1 0
vn 0 1 0

# texcoords
vt 0.0917969 0.5
vt 0.306641 0.5
vt 0.369141 0.5
vt 0.396484 0.5

# verts
v -2 0 2
v -2 0 1.8
v -2 0 0.8
v -2 0 0.6
v -2 0.2 1.8
v -2 0.2 0.8
v -2 1.2 2
v -2 1.2 0.6
v -2 1.4 2
v -2 1.4 0.6
v -1.6 0.4 0.6
v -1.6 0.4 0.5
v -1.6 0.5 0.6
v -1.6 0.5 0.5
v -1.6 1 0.6
v -1.6 1 0.5
v -1.6 1.1 0.6
v -1.6 1.1 0.5
v -1.2 0 2
v -1.2 0 1.8
v -1.2 0 0.8
v -1.2 0 0.6
v -1.2 0.2 2
v -1.2 0.2 1.8
v -1.2 0.2 0.8
v -1.2 0.2 0.6
v -1.1 0.3 1.9
v -1.1 0.3 0.7
v -1.1 0.6 1.9
v -1.1 0.6 0.7
v -1.1 0.7 1.9
v -1.1 0.7 0.7
v -1.1 1.2 1.9
v -1.1 1.3 1.9
v -1.1 1.3 0.7
v 0.8 0 2
v 0.8 0 1.8
v 0.8 0 0.8
v 0.8 0 0.6
v 0.8 1.2 2
v 0.8 1.2 1.8
v 0.8 1.2 0.8
v 0.8 1.2 0.6
v -1.9 0.3 1.9
v -1.9 0.3 0.8
v -1.9 0.3 0.7
v -1.9 0.6 1.9
v -1.9 0.6 0.7
v -1.9 0.7 1.9
v -1.9 0.7 0.7
v -1.9 1.2 1.9
v -1.9 1.2 0.7
v -1.9 1.3 1.9
v -1.9 1.3 0.7
v -1.8 0 2
v -1.8 0 1.8
v -1.8 0 0.8
v -1.8 0 0.6
v -1.8 0.2 2
v -1.8 0.2 1.8
v -1.8 0.2 0.8
v -1.8 0.2 0.6
v -1.4 0.4 0.6
v -1.4 0.4 0.5
v -1.4 0.5 0.6
v -1.4 0.5 0.5
v -1.4 1 0.6
v -1.4 1 0.5
v -1.4 1.1 0.6
v -1.4 1.1 0.5
v -1 0 2
v -1 0 1.8
v -1 0 0.8
v -1 0 0.6
v -1 0.2 1.8
v -1 0.2 0.8
v -1 1.2 2
v -1 1.2 0.6
v 1 0 2
v 1 0 1.8
v 1 0 0.8
v 1 0 0.6
v 1 1.2 2
v 1 1.2 1.8
v 1 1.2 0.8
v 1 1.2 0.6
v 1 1.4 2
v 1 1.4 0.6
v -2 0 2
v -2 1.2 2
v -2 1.4 2
v -1.8 0 2
v -1.8 0.2 2
v -1.2 0 2
v -1.2 0.2 2
v -1 0 2
v -1 1.2 2
v 0.8 0 2
v 0.8 1.2 2
v 1 0 2
v 1 1.2 2
v 1 1.4 2
v -2 0 0.8
v -2 0.2 0.8
v -1.8 0 0.8
v -1.8 0.2 0.8
v -1.2 0 0.8
v -1.2 0.2 0.8
v -1 0 0.8
v -1 0.2 0.8
v 0.8 0 0.8
v 0.8 1.2 0.8
v 1 0 0.8
v 1 1.2 0.8
v -1.9 0.3 0.7
v -1.9 0.6 0.7
v -1.9 0.7 0.7
v -1.9 1.2 0.7
v -1.9 1.3 0.7
v -1.8 0.3 0.7
v -1.1 0.3 0.7
v -1.1 0.6 0.7
v -1.1 0.7 0.7
v -1.1 1.3 0.7
v -1.9 0.3 1.9
v -1.9 0.6 1.9
v -1.9 0.7 1.9
v -1.9 1.2 1.9
v -1.9 1.3 1.9
v -1.1 0.3 1.9
v -1.1 0.6 1.9
v -1.1 0.7 1.9
v -1.1 1.2 1.9
v -1.1 1.3 1.9
v -2 0 1.8
v -2 0.2 1.8
v -1.8 0 1.8
v -1.8 0.2 1.8
v -1.2 0 1.8
v -1.2 0.2 1.8
v -1 0 1.8
v -1 0.2 1.8
v 0.8 0 1.8
v 0.8 1.2 1.8
v 1 0 1.8
v 1 1.2 1.8
v -2 0 0.6
v -2 1.2 0.6
v -2 1.4 0.6
v -1.9 0.3 0.6
v -1.9 0.6 0.6
v -1.9 0.7 0.6
v -1.9 1.2 0.6
v -1.9 1.3 0.6
v -1.8 0 0.6
v -1.8 0.2 0.6
v -1.6 0.4 0.6
v -1.6 0.5 0.6
v -1.6 1 0.6
v -1.6 1.1 0.6
v -1.4 0.4 0.6
v -1.4 0.5 0.6
v -1.4 1 0.6
v -1.4 1.1 0.6
v -1.2 0 0.6
v -1.2 0.2 0.6
v -1.1 0.3 0.6
v -1.1 0.6 0.6
v -1.1 0.7 0.6
v -1.1 1.2 0.6
v -1.1 1.3 0.6
v -1 0 0.6
v -1 1.2 0.6
v 0.8 0 0.6
v 0.8 1.2 0.6
v 1 0 0.6
v 1 1.2 0.6
v 1 1.4 0.6
v -1.6 0.4 0.5
v -1.6 0.5 0.5
v -1.6 1 0.5
v -1.6 1.1 0.5
v -1.4 0.4 0.5
v -1.4 0.5 0.5
v -1.4 1 0.5
v -1.4 1.1 0.5
v -2 0 2
v -1.8 0 2
v -1.2 0 2
v -1 0 2
v 0.8 0 2
v 1 0 2
v -2 0 1.8
v -1.8 0 1.8
v -1.2 0 1.8
v -1 0 1.8
v 0.8 0 1.8
v 1 0 1.8
v -2 0 0.8
v -1.8 0 0.8
v -1.2 0 0.8
v -1 0 0.8
v 0.8 0 0.8
v 1 0 0.8
v -2 0 0.6
v -1.8 0 0.6
v -1.2 0 0.6
v -1 0 0.6
v 0.8 0 0.6
v 1 0 0.6
v -1.8 0.2 2
v -1.2 0.2 2
v -2 0.2 1.8
v -1.8 0.2 1.8
v -1.2 0.2 1.8
v -1 0.2 1.8
v -2 0.2 0.8
v -1.8 0.2 0.8
v -1.2 0.2 0.8
v -1 0.2 0.8
v -1.8 0.2 0.6
v -1.2 0.2 0.6
v -1.6 0.4 0.6
v -1.4 0.4 0.6
v -1.6 0.4 0.5
v -1.4 0.4 0.5
v -1.9 0.6 1.9
v -1.1 0.6 1.9
v -1.9 0.6 0.7
v -1.1 0.6 0.7
v -1.6 1 0.6
v -1.4 1 0.6
v -1.6 1 0.5
v -1.4 1 0.5
v -1 1.2 2
v 0.8 1.2 2
v 0.8 1.2 1.8
v 1 1.2 1.8
v 0.8 1.2 0.8
v 1 1.2 0.8
v -1 1.2 0.6
v 0.8 1.2 0.6
v -1.9 1.3 1.9
v -1.1 1.3 1.9
v -1.9 1.3 0.7
v -1.1 1.3 0.7
v -1.9 0.3 1.9
v -1.1 0.3 1.9
v -1.9 0.3 0.8
v -1.8 0.3 0.8
v -1.9 0.3 0.7
v -1.8 0.3 0.7
v -1.1 0.3 0.7
v -1.6 0.5 0.6
v -1.4 0.5 0.6
v -1.6 0.5 0.5
v -1.4 0.5 0.5
v -1.9 0.7 1.9
v -1.1 0.7 1.9
v -1.9 0.7 0.7
v -1.1 0.7 0.7
v -1.6 1.1 0.6
v -1.4 1.1 0.6
v -1.6 1.1 0.5
v -1.4 1.1 0.5
v -2 1.4 2
v 1 1.4 2
v -2 1.4 0.6
v 1 1.4 0.6

# faces
f 5/4/1 2/4/1 1/4/1
f 6/4/1 4/4/1 3/4/1
f 7/4/1 5/4/1 1/4/1
f 7/4/1 6/4/1 5/4/1
f 8/4/1 4/4/1 6/4/1
f 8/4/1 6/4/1 7/4/1
f 9/1/1 8/1/1 7/1/1
f 10/1/1 8/1/1 9/1/1
f 13/4/1 12/4/1 11/4/1
f 14/4/1 12/4/1 13/4/1
f 17/4/1 16/4/1 15/4/1
f 18/4/1 16/4/1 17/4/1
f 23/4/1 20/4/1 19/4/1
f 24/4/1 20/4/1 23/4/1
f 25/4/1 22/4/1 21/4/1
f 26/4/1 22/4/1 25/4/1
f 29/4/1 28/4/1 27/4/1
f 30/4/1 28/4/1 29/4/1
f 33/4/1 32/4/1 31/4/1
f 34/4/1 32/4/1 33/4/1
f 35/4/1 32/4/1 34/4/1
f 40/4/1 37/4/1 36/4/1
f 41/4/1 37/4/1 40/4/1
f 42/4/1 39/4/1 38/4/1
f 43/4/1 39/4/1 42/4/1
f 44/4/2 45/4/2 47/4/2
f 45/4/2 46/4/2 47/4/2
f 47/4/2 46/4/2 48/4/2
f 49/4/2 50/4/2 51/4/2
f 51/4/2 50/4/2 52/4/2
f 51/1/2 52/1/2 53/1/2
f 53/1/2 52/1/2 54/1/2
f 55/4/2 56/4/2 59/4/2
f 59/4/2 56/4/2 60/4/2
f 57/4/2 58/4/2 61/4/2
f 61/4/2 58/4/2 62/4/2
f 63/4/2 64/4/2 65/4/2
f 65/4/2 64/4/2 66/4/2
f 67/4/2 68/4/2 69/4/2
f 69/4/2 68/4/2 70/4/2
f 71/4/2 72/4/2 75/4/2
f 73/4/2 74/4/2 76/4/2
f 71/4/2 75/4/2 77/4/2
f 75/4/2 76/4/2 77/4/2
f 76/4/2 74/4/2 78/4/2
f 77/4/2 76/4/2 78/4/2
f 79/4/2 80/4/2 83/4/2
f 83/4/2 80/4/2 84/4/2
f 81/4/2 82/4/2 85/4/2
f 85/4/2 82/4/2 86/4/2
f 83/1/2 84/1/2 87/1/2
f 84/1/2 85/1/2 87/1/2
f 85/1/2 86/1/2 87/1/2
f 87/1/2 86/1/2 88/1/2
f 92/4/3 90/4/3 89/4/3
f 93/4/3 90/4/3 92/4/3
f 95/4/3 90/4/3 93/4/3
f 96/4/3 95/4/3 94/4/3
f 97/1/3 91/1/3 90/1/3
f 97/4/3 95/4/3 96/4/3
f 97/4/3 90/4/3 95/4/3
f 99/1/3 91/1/3 97/1/3
f 100/4/3 99/4/3 98/4/3
f 101/1/3 91/1/3 99/1/3
f 101/4/3 99/4/3 100/4/3
f 102/1/3 91/1/3 101/1/3
f 105/4/3 104/4/3 103/4/3
f 106/4/3 104/4/3 105/4/3
f 109/4/3 108/4/3 107/4/3
f 110/4/3 108/4/3 109/4/3
f 113/4/3 112/4/3 111/4/3
f 114/4/3 112/4/3 113/4/3
f 120/3/3 116/3/3 115/3/3
f 121/3/3 116/3/3 120/3/3
f 122/3/3 116/3/3 121/3/3
f 123/3/3 119/3/3 118/3/3
f 123/3/3 118/3/3 117/3/3
f 124/3/3 119/3/3 123/3/3
f 125/4/4 126/4/4 130/4/4
f 130/4/4 126/4/4 131/4/4
f 127/4/4 128/4/4 132/4/4
f 128/1/4 129/1/4 133/1/4
f 132/4/4 128/4/4 133/4/4
f 133/1/4 129/1/4 134/1/4
f 135/4/4 136/4/4 137/4/4
f 137/4/4 136/4/4 138/4/4
f 139/4/4 140/4/4 141/4/4
f 141/4/4 140/4/4 142/4/4
f 143/4/4 144/4/4 145/4/4
f 145/4/4 144/4/4 146/4/4
f 147/4/4 148/4/4 150/4/4
f 150/4/4 148/4/4 151/4/4
f 151/4/4 148/4/4 152/4/4
f 148/1/4 149/1/4 153/1/4
f 152/4/4 148/4/4 153/4/4
f 153/1/4 149/1/4 154/1/4
f 147/4/4 150/4/4 155/4/4
f 155/4/4 150/4/4 156/4/4
f 150/3/4 151/3/4 157/3/4
f 157/3/4 151/3/4 158/3/4
f 152/3/4 153/3/4 159/3/4
f 153/3/4 154/3/4 159/3/4
f 159/3/4 154/3/4 160/3/4
f 150/3/4 157/3/4 161/3/4
f 158/3/4 151/3/4 162/3/4
f 152/3/4 159/3/4 163/3/4
f 160/3/4 154/3/4 164/3/4
f 156/4/4 150/4/4 166/4/4
f 150/3/4 161/3/4 167/3/4
f 165/4/4 166/4/4 167/4/4
f 166/4/4 150/4/4 167/4/4
f 161/3/4 162/3/4 167/3/4
f 151/4/4 152/4/4 168/4/4
f 167/3/4 162/3/4 168/3/4
f 162/3/4 151/3/4 168/3/4
f 163/3/4 164/3/4 169/3/4
f 168/4/4 152/4/4 169/4/4
f 152/3/4 163/3/4 169/3/4
f 164/3/4 154/3/4 170/3/4
f 169/3/4 164/3/4 170/3/4
f 154/1/4 149/1/4 171/1/4
f 170/3/4 154/3/4 171/3/4
f 165/4/4 167/4/4 172/4/4
f 169/4/4 170/4/4 172/4/4
f 167/4/4 168/4/4 172/4/4
f 168/4/4 169/4/4 172/4/4
f 170/1/4 171/1/4 173/1/4
f 172/4/4 170/4/4 173/4/4
f 173/1/4 171/1/4 175/1/4
f 174/4/4 175/4/4 176/4/4
f 175/1/4 171/1/4 177/1/4
f 176/4/4 175/4/4 177/4/4
f 171/1/4 149/1/4 178/1/4
f 177/1/4 171/1/4 178/1/4
f 179/4/4 180/4/4 183/4/4
f 183/4/4 180/4/4 184/4/4
f 181/4/4 182/4/4 185/4/4
f 185/4/4 182/4/4 186/4/4
f 193/4/5 188/4/5 187/4/5
f 194/4/5 188/4/5 193/4/5
f 195/4/5 190/4/5 189/4/5
f 196/4/5 190/4/5 195/4/5
f 197/4/5 192/4/5 191/4/5
f 198/4/5 192/4/5 197/4/5
f 205/4/5 200/4/5 199/4/5
f 206/4/5 200/4/5 205/4/5
f 207/4/5 202/4/5 201/4/5
f 208/4/5 202/4/5 207/4/5
f 209/4/5 204/4/5 203/4/5
f 210/4/5 204/4/5 209/4/5
f 214/4/5 212/4/5 211/4/5
f 215/4/5 212/4/5 214/4/5
f 217/4/5 214/4/5 213/4/5
f 217/4/5 216/4/5 215/4/5
f 217/4/5 215/4/5 214/4/5
f 218/4/5 216/4/5 217/4/5
f 219/4/5 216/4/5 218/4/5
f 220/4/5 216/4/5 219/4/5
f 221/4/5 219/4/5 218/4/5
f 222/4/5 219/4/5 221/4/5
f 225/4/5 224/4/5 223/4/5
f 226/4/5 224/4/5 225/4/5
f 229/2/5 228/2/5 227/2/5
f 230/2/5 228/2/5 229/2/5
f 233/4/5 232/4/5 231/4/5
f 234/4/5 232/4/5 233/4/5
f 237/1/5 236/1/5 235/1/5
f 239/1/5 237/1/5 235/1/5
f 239/1/5 238/1/5 237/1/5
f 240/1/5 238/1/5 239/1/5
f 241/1/5 239/1/5 235/1/5
f 242/1/5 239/1/5 241/1/5
f 245/1/5 244/1/5 243/1/5
f 246/1/5 244/1/5 245/1/5
f 247/4/6 248/4/6 249/4/6
f 249/4/6 248/4/6 250/4/6
f 249/2/6 250/2/6 251/2/6
f 250/4/6 248/4/6 252/4/6
f 251/2/6 250/2/6 252/2/6
f 252/4/6 248/4/6 253/4/6
f 254/4/6 255/4/6 256/4/6
f 256/4/6 255/4/6 257/4/6
f 258/2/6 259/2/6 260/2/6
f 260/2/6 259/2/6 261/2/6
f 262/4/6 263/4/6 264/4/6
f 264/4/6 263/4/6 265/4/6
f 266/1/6 267/1/6 268/1/6
f 268/1/6 267/1/6 269/1/6
