# MagicaVoxel @ Ephtracy

# group
g furnaceDoor

# material
mtllib furnaceDoor.mtl
usemtl palette

# normals
vn -1 0 0
vn 1 0 0
vn 0 0 1
vn 0 0 -1
vn 0 -1 0
vn 0 1 0

# texcoords
vt 0.986328 0.5
vt 0.994141 0.5

# verts
v -18 0 -0
v -18 0 -2
v -18 23 -0
v -18 23 -2
v -14 21 1
v -14 21 -0
v -14 22 1
v -14 22 -0
v -13 21 2
v -13 21 1
v -13 22 2
v -13 22 1
v 13 21 1
v 13 21 -0
v 13 22 1
v 13 22 -0
v 15 3 -0
v 15 3 -2
v 15 20 -0
v 15 20 -2
v -15 3 -0
v -15 3 -2
v -15 20 -0
v -15 20 -2
v -13 21 1
v -13 21 -0
v -13 22 1
v -13 22 -0
v 13 21 2
v 13 21 1
v 13 22 2
v 13 22 1
v 14 21 1
v 14 21 -0
v 14 22 1
v 14 22 -0
v 18 0 -0
v 18 0 -2
v 18 23 -0
v 18 23 -2
v -13 21 2
v -13 22 2
v 13 21 2
v 13 22 2
v -14 21 1
v -14 22 1
v -13 21 1
v -13 22 1
v 13 21 1
v 13 22 1
v 14 21 1
v 14 22 1
v -18 0 -0
v -18 23 -0
v -15 3 -0
v -15 20 -0
v -14 21 -0
v -14 22 -0
v -13 21 -0
v -13 22 -0
v 13 21 -0
v 13 22 -0
v 14 21 -0
v 14 22 -0
v 15 3 -0
v 15 20 -0
v 18 0 -0
v 18 23 -0
v -13 21 1
v -13 22 1
v 13 21 1
v 13 22 1
v -18 0 -2
v -18 23 -2
v -15 3 -2
v -15 20 -2
v 15 3 -2
v 15 20 -2
v 18 0 -2
v 18 23 -2
v -18 0 -0
v 18 0 -0
v -18 0 -2
v 18 0 -2
v -15 20 -0
v 15 20 -0
v -15 20 -2
v 15 20 -2
v -13 21 2
v 13 21 2
v -14 21 1
v -13 21 1
v 13 21 1
v 14 21 1
v -14 21 -0
v -13 21 -0
v 13 21 -0
v 14 21 -0
v -15 3 -0
v 15 3 -0
v -15 3 -2
v 15 3 -2
v -13 22 2
v 13 22 2
v -14 22 1
v -13 22 1
v 13 22 1
v 14 22 1
v -14 22 -0
v -13 22 -0
v 13 22 -0
v 14 22 -0
v -18 23 -0
v 18 23 -0
v -18 23 -2
v 18 23 -2

# faces
f 3/2/1 2/2/1 1/2/1
f 4/2/1 2/2/1 3/2/1
f 7/1/1 6/1/1 5/1/1
f 8/1/1 6/1/1 7/1/1
f 11/1/1 10/1/1 9/1/1
f 12/1/1 10/1/1 11/1/1
f 15/1/1 14/1/1 13/1/1
f 16/1/1 14/1/1 15/1/1
f 19/2/1 18/2/1 17/2/1
f 20/2/1 18/2/1 19/2/1
f 21/2/2 22/2/2 23/2/2
f 23/2/2 22/2/2 24/2/2
f 25/1/2 26/1/2 27/1/2
f 27/1/2 26/1/2 28/1/2
f 29/1/2 30/1/2 31/1/2
f 31/1/2 30/1/2 32/1/2
f 33/1/2 34/1/2 35/1/2
f 35/1/2 34/1/2 36/1/2
f 37/2/2 38/2/2 39/2/2
f 39/2/2 38/2/2 40/2/2
f 43/1/3 42/1/3 41/1/3
f 44/1/3 42/1/3 43/1/3
f 47/1/3 46/1/3 45/1/3
f 48/1/3 46/1/3 47/1/3
f 51/1/3 50/1/3 49/1/3
f 52/1/3 50/1/3 51/1/3
f 55/2/3 54/2/3 53/2/3
f 56/2/3 54/2/3 55/2/3
f 57/2/3 54/2/3 56/2/3
f 58/2/3 54/2/3 57/2/3
f 59/2/3 57/2/3 56/2/3
f 60/2/3 54/2/3 58/2/3
f 61/2/3 59/2/3 56/2/3
f 61/2/3 60/2/3 59/2/3
f 62/2/3 54/2/3 60/2/3
f 62/2/3 60/2/3 61/2/3
f 63/2/3 61/2/3 56/2/3
f 64/2/3 54/2/3 62/2/3
f 65/2/3 55/2/3 53/2/3
f 66/2/3 64/2/3 63/2/3
f 66/2/3 63/2/3 56/2/3
f 67/2/3 65/2/3 53/2/3
f 67/2/3 66/2/3 65/2/3
f 68/2/3 64/2/3 66/2/3
f 68/2/3 66/2/3 67/2/3
f 68/2/3 54/2/3 64/2/3
f 69/1/4 70/1/4 71/1/4
f 71/1/4 70/1/4 72/1/4
f 73/2/4 74/2/4 75/2/4
f 75/2/4 74/2/4 76/2/4
f 73/2/4 75/2/4 77/2/4
f 76/2/4 74/2/4 78/2/4
f 73/2/4 77/2/4 79/2/4
f 77/2/4 78/2/4 79/2/4
f 78/2/4 74/2/4 80/2/4
f 79/2/4 78/2/4 80/2/4
f 83/2/5 82/2/5 81/2/5
f 84/2/5 82/2/5 83/2/5
f 87/2/5 86/2/5 85/2/5
f 88/2/5 86/2/5 87/2/5
f 92/1/5 90/1/5 89/1/5
f 93/1/5 90/1/5 92/1/5
f 95/1/5 92/1/5 91/1/5
f 96/1/5 92/1/5 95/1/5
f 97/1/5 94/1/5 93/1/5
f 98/1/5 94/1/5 97/1/5
f 99/2/6 100/2/6 101/2/6
f 101/2/6 100/2/6 102/2/6
f 103/1/6 104/1/6 106/1/6
f 106/1/6 104/1/6 107/1/6
f 105/1/6 106/1/6 109/1/6
f 109/1/6 106/1/6 110/1/6
f 107/1/6 108/1/6 111/1/6
f 111/1/6 108/1/6 112/1/6
f 113/2/6 114/2/6 115/2/6
f 115/2/6 114/2/6 116/2/6
