# MagicaVoxel @ Ephtracy

# group
o 

# material
mtllib hotte.mtl
usemtl palette

# normals
vn -1 0 0
vn 1 0 0
vn 0 0 1
vn 0 0 -1
vn 0 -1 0
vn 0 1 0

# texcoords
vt 0.845703 0.5
vt 0.880859 0.5
vt 0.978516 0.5
vt 0.986328 0.5

# verts
v 0 5 -1.2
v 0 5 -2.6
v 0 5.4 -1.2
v 0 5.4 -2.6
v 0.2 5.4 -1.4
v 0.2 5.4 -2.5
v 0.2 5.5 -1.4
v 0.2 5.5 -2.5
v 0.4 5.5 -1.6
v 0.4 5.5 -2.4
v 0.4 5.6 -1.6
v 0.4 5.6 -2.4
v 0.6 5.6 -1.8
v 0.6 5.6 -2.3
v 0.6 5.7 -1.8
v 0.6 5.7 -2.3
v 1.7 5.4 -2.5
v 1.7 5.4 -2.6
v 1.7 5.5 -2.4
v 1.7 5.5 -2.5
v 1.7 5.6 -2.3
v 1.7 5.6 -2.4
v 1.7 5.7 -2.3
v 1.7 5.7 -2.6
v 3.9 5 -1.3
v 3.9 5 -2.5
v 3.9 5.2 -1.3
v 3.9 5.3 -1.3
v 3.9 5.3 -2.5
v 0.1 5 -1.3
v 0.1 5 -2.5
v 0.1 5.3 -1.3
v 0.1 5.3 -2.5
v 2.3 5.4 -2.5
v 2.3 5.4 -2.6
v 2.3 5.5 -2.4
v 2.3 5.5 -2.5
v 2.3 5.6 -2.3
v 2.3 5.6 -2.4
v 2.3 5.7 -2.3
v 2.3 5.7 -2.6
v 3.4 5.6 -1.8
v 3.4 5.6 -2.3
v 3.4 5.7 -1.8
v 3.4 5.7 -2.3
v 3.6 5.5 -1.6
v 3.6 5.5 -2.4
v 3.6 5.6 -1.6
v 3.6 5.6 -2.4
v 3.8 5.4 -1.4
v 3.8 5.4 -2.5
v 3.8 5.5 -1.4
v 3.8 5.5 -2.5
v 4 5 -1.2
v 4 5 -2.6
v 4 5.4 -1.2
v 4 5.4 -2.6
v 0 5 -1.2
v 0 5.4 -1.2
v 3.6 5.2 -1.2
v 3.6 5.3 -1.2
v 3.7 5.2 -1.2
v 3.7 5.3 -1.2
v 3.8 5.2 -1.2
v 3.8 5.3 -1.2
v 3.9 5.2 -1.2
v 3.9 5.3 -1.2
v 4 5 -1.2
v 4 5.4 -1.2
v 0.2 5.4 -1.4
v 0.2 5.5 -1.4
v 3.8 5.4 -1.4
v 3.8 5.5 -1.4
v 0.4 5.5 -1.6
v 0.4 5.6 -1.6
v 3.6 5.5 -1.6
v 3.6 5.6 -1.6
v 0.6 5.6 -1.8
v 0.6 5.7 -1.8
v 3.4 5.6 -1.8
v 3.4 5.7 -1.8
v 0.1 5 -2.5
v 0.1 5.3 -2.5
v 3.9 5 -2.5
v 3.9 5.3 -2.5
v 0.1 5 -1.3
v 0.1 5.3 -1.3
v 3.6 5.2 -1.3
v 3.6 5.3 -1.3
v 3.7 5.2 -1.3
v 3.7 5.3 -1.3
v 3.8 5.2 -1.3
v 3.8 5.3 -1.3
v 3.9 5 -1.3
v 3.9 5.2 -1.3
v 3.9 5.3 -1.3
v 0.6 5.6 -2.3
v 0.6 5.7 -2.3
v 1.7 5.6 -2.3
v 1.7 5.7 -2.3
v 2.3 5.6 -2.3
v 2.3 5.7 -2.3
v 3.4 5.6 -2.3
v 3.4 5.7 -2.3
v 0.4 5.5 -2.4
v 0.4 5.6 -2.4
v 1.7 5.5 -2.4
v 1.7 5.6 -2.4
v 2.3 5.5 -2.4
v 2.3 5.6 -2.4
v 3.6 5.5 -2.4
v 3.6 5.6 -2.4
v 0.2 5.4 -2.5
v 0.2 5.5 -2.5
v 1.7 5.4 -2.5
v 1.7 5.5 -2.5
v 2.3 5.4 -2.5
v 2.3 5.5 -2.5
v 3.8 5.4 -2.5
v 3.8 5.5 -2.5
v 0 5 -2.6
v 0 5.4 -2.6
v 1.7 5.4 -2.6
v 1.7 5.7 -2.6
v 2.3 5.4 -2.6
v 2.3 5.7 -2.6
v 4 5 -2.6
v 4 5.4 -2.6
v 0 5 -1.2
v 4 5 -1.2
v 0.1 5 -1.3
v 3.9 5 -1.3
v 0.1 5 -2.5
v 3.9 5 -2.5
v 0 5 -2.6
v 4 5 -2.6
v 0.1 5.3 -1.3
v 3.6 5.3 -1.3
v 3.7 5.3 -1.3
v 3.8 5.3 -1.3
v 3.9 5.3 -1.3
v 0.3 5.3 -1.5
v 0.4 5.3 -1.5
v 0.5 5.3 -1.5
v 0.6 5.3 -1.5
v 0.7 5.3 -1.5
v 0.8 5.3 -1.5
v 0.9 5.3 -1.5
v 1 5.3 -1.5
v 1.2 5.3 -1.5
v 1.3 5.3 -1.5
v 1.4 5.3 -1.5
v 1.5 5.3 -1.5
v 1.6 5.3 -1.5
v 1.7 5.3 -1.5
v 1.8 5.3 -1.5
v 1.9 5.3 -1.5
v 2.1 5.3 -1.5
v 2.2 5.3 -1.5
v 2.3 5.3 -1.5
v 2.4 5.3 -1.5
v 2.5 5.3 -1.5
v 2.6 5.3 -1.5
v 2.7 5.3 -1.5
v 2.8 5.3 -1.5
v 3 5.3 -1.5
v 3.1 5.3 -1.5
v 3.2 5.3 -1.5
v 3.3 5.3 -1.5
v 3.4 5.3 -1.5
v 3.5 5.3 -1.5
v 3.6 5.3 -1.5
v 3.7 5.3 -1.5
v 0.3 5.3 -2.4
v 0.4 5.3 -2.4
v 0.5 5.3 -2.4
v 0.6 5.3 -2.4
v 0.7 5.3 -2.4
v 0.8 5.3 -2.4
v 0.9 5.3 -2.4
v 1 5.3 -2.4
v 1.2 5.3 -2.4
v 1.3 5.3 -2.4
v 1.4 5.3 -2.4
v 1.5 5.3 -2.4
v 1.6 5.3 -2.4
v 1.7 5.3 -2.4
v 1.8 5.3 -2.4
v 1.9 5.3 -2.4
v 2.1 5.3 -2.4
v 2.2 5.3 -2.4
v 2.3 5.3 -2.4
v 2.4 5.3 -2.4
v 2.5 5.3 -2.4
v 2.6 5.3 -2.4
v 2.7 5.3 -2.4
v 2.8 5.3 -2.4
v 3 5.3 -2.4
v 3.1 5.3 -2.4
v 3.2 5.3 -2.4
v 3.3 5.3 -2.4
v 3.4 5.3 -2.4
v 3.5 5.3 -2.4
v 3.6 5.3 -2.4
v 3.7 5.3 -2.4
v 0.1 5.3 -2.5
v 3.9 5.3 -2.5
v 0 5.4 -1.2
v 4 5.4 -1.2
v 0.2 5.4 -1.4
v 3.8 5.4 -1.4
v 0.2 5.4 -2.5
v 1.7 5.4 -2.5
v 2.3 5.4 -2.5
v 3.8 5.4 -2.5
v 0 5.4 -2.6
v 1.7 5.4 -2.6
v 2.3 5.4 -2.6
v 4 5.4 -2.6
v 0.2 5.5 -1.4
v 3.8 5.5 -1.4
v 0.4 5.5 -1.6
v 3.6 5.5 -1.6
v 0.4 5.5 -2.4
v 1.7 5.5 -2.4
v 2.3 5.5 -2.4
v 3.6 5.5 -2.4
v 0.2 5.5 -2.5
v 1.7 5.5 -2.5
v 2.3 5.5 -2.5
v 3.8 5.5 -2.5
v 0.4 5.6 -1.6
v 3.6 5.6 -1.6
v 0.6 5.6 -1.8
v 3.4 5.6 -1.8
v 0.6 5.6 -2.3
v 1.7 5.6 -2.3
v 2.3 5.6 -2.3
v 3.4 5.6 -2.3
v 0.4 5.6 -2.4
v 1.7 5.6 -2.4
v 2.3 5.6 -2.4
v 3.6 5.6 -2.4
v 0.6 5.7 -1.8
v 3.4 5.7 -1.8
v 0.6 5.7 -2.3
v 1.7 5.7 -2.3
v 2.3 5.7 -2.3
v 3.4 5.7 -2.3
v 1.7 5.7 -2.6
v 2.3 5.7 -2.6

# faces
f 3/3/1 2/3/1 1/3/1
f 4/3/1 2/3/1 3/3/1
f 7/3/1 6/3/1 5/3/1
f 8/3/1 6/3/1 7/3/1
f 11/3/1 10/3/1 9/3/1
f 12/3/1 10/3/1 11/3/1
f 15/3/1 14/3/1 13/3/1
f 16/3/1 14/3/1 15/3/1
f 20/3/1 18/3/1 17/3/1
f 22/3/1 20/3/1 19/3/1
f 23/3/1 22/3/1 21/3/1
f 24/3/1 18/3/1 20/3/1
f 24/3/1 22/3/1 23/3/1
f 24/3/1 20/3/1 22/3/1
f 27/3/1 26/3/1 25/3/1
f 28/3/1 26/3/1 27/3/1
f 29/3/1 26/3/1 28/3/1
f 30/3/2 31/3/2 32/3/2
f 32/3/2 31/3/2 33/3/2
f 34/3/2 35/3/2 37/3/2
f 36/3/2 37/3/2 39/3/2
f 38/3/2 39/3/2 40/3/2
f 37/3/2 35/3/2 41/3/2
f 40/3/2 39/3/2 41/3/2
f 39/3/2 37/3/2 41/3/2
f 42/3/2 43/3/2 44/3/2
f 44/3/2 43/3/2 45/3/2
f 46/3/2 47/3/2 48/3/2
f 48/3/2 47/3/2 49/3/2
f 50/3/2 51/3/2 52/3/2
f 52/3/2 51/3/2 53/3/2
f 54/3/2 55/3/2 56/3/2
f 56/3/2 55/3/2 57/3/2
f 60/3/3 59/3/3 58/3/3
f 61/3/3 59/3/3 60/3/3
f 62/3/3 60/3/3 58/3/3
f 62/1/3 61/1/3 60/1/3
f 63/3/3 59/3/3 61/3/3
f 63/1/3 61/1/3 62/1/3
f 64/3/3 62/3/3 58/3/3
f 64/3/3 63/3/3 62/3/3
f 65/3/3 59/3/3 63/3/3
f 65/3/3 63/3/3 64/3/3
f 66/3/3 64/3/3 58/3/3
f 66/2/3 65/2/3 64/2/3
f 67/3/3 59/3/3 65/3/3
f 67/2/3 65/2/3 66/2/3
f 68/3/3 66/3/3 58/3/3
f 68/3/3 67/3/3 66/3/3
f 69/3/3 59/3/3 67/3/3
f 69/3/3 67/3/3 68/3/3
f 72/3/3 71/3/3 70/3/3
f 73/3/3 71/3/3 72/3/3
f 76/3/3 75/3/3 74/3/3
f 77/3/3 75/3/3 76/3/3
f 80/3/3 79/3/3 78/3/3
f 81/3/3 79/3/3 80/3/3
f 84/3/3 83/3/3 82/3/3
f 85/3/3 83/3/3 84/3/3
f 86/3/4 87/3/4 88/3/4
f 88/3/4 87/3/4 89/3/4
f 86/3/4 88/3/4 90/3/4
f 88/1/4 89/1/4 90/1/4
f 90/1/4 89/1/4 91/1/4
f 86/3/4 90/3/4 92/3/4
f 90/3/4 91/3/4 92/3/4
f 92/3/4 91/3/4 93/3/4
f 86/3/4 92/3/4 94/3/4
f 92/2/4 93/2/4 95/2/4
f 94/3/4 92/3/4 95/3/4
f 95/2/4 93/2/4 96/2/4
f 97/3/4 98/3/4 99/3/4
f 99/3/4 98/3/4 100/3/4
f 101/3/4 102/3/4 103/3/4
f 103/3/4 102/3/4 104/3/4
f 105/3/4 106/3/4 107/3/4
f 107/3/4 106/3/4 108/3/4
f 109/3/4 110/3/4 111/3/4
f 111/3/4 110/3/4 112/3/4
f 113/3/4 114/3/4 115/3/4
f 115/3/4 114/3/4 116/3/4
f 117/3/4 118/3/4 119/3/4
f 119/3/4 118/3/4 120/3/4
f 121/3/4 122/3/4 123/3/4
f 121/3/4 123/3/4 125/3/4
f 123/3/4 124/3/4 125/3/4
f 125/3/4 124/3/4 126/3/4
f 121/3/4 125/3/4 127/3/4
f 127/3/4 125/3/4 128/3/4
f 131/3/5 130/3/5 129/3/5
f 132/3/5 130/3/5 131/3/5
f 133/3/5 131/3/5 129/3/5
f 134/3/5 130/3/5 132/3/5
f 135/3/5 133/3/5 129/3/5
f 135/3/5 134/3/5 133/3/5
f 136/3/5 130/3/5 134/3/5
f 136/3/5 134/3/5 135/3/5
f 142/3/5 138/3/5 137/3/5
f 142/3/5 141/3/5 140/3/5
f 142/3/5 140/3/5 139/3/5
f 142/3/5 139/3/5 138/3/5
f 143/3/5 141/3/5 142/3/5
f 144/3/5 141/3/5 143/3/5
f 145/3/5 141/3/5 144/3/5
f 146/3/5 141/3/5 145/3/5
f 147/3/5 141/3/5 146/3/5
f 148/3/5 141/3/5 147/3/5
f 149/3/5 141/3/5 148/3/5
f 150/3/5 141/3/5 149/3/5
f 151/3/5 141/3/5 150/3/5
f 152/3/5 141/3/5 151/3/5
f 153/3/5 141/3/5 152/3/5
f 154/3/5 141/3/5 153/3/5
f 155/3/5 141/3/5 154/3/5
f 156/3/5 141/3/5 155/3/5
f 157/3/5 141/3/5 156/3/5
f 158/3/5 141/3/5 157/3/5
f 159/3/5 141/3/5 158/3/5
f 160/3/5 141/3/5 159/3/5
f 161/3/5 141/3/5 160/3/5
f 162/3/5 141/3/5 161/3/5
f 163/3/5 141/3/5 162/3/5
f 164/3/5 141/3/5 163/3/5
f 165/3/5 141/3/5 164/3/5
f 166/3/5 141/3/5 165/3/5
f 167/3/5 141/3/5 166/3/5
f 168/3/5 141/3/5 167/3/5
f 169/3/5 141/3/5 168/3/5
f 170/3/5 141/3/5 169/3/5
f 171/3/5 141/3/5 170/3/5
f 172/3/5 141/3/5 171/3/5
f 173/3/5 141/3/5 172/3/5
f 174/3/5 142/3/5 137/3/5
f 174/4/5 143/4/5 142/4/5
f 175/3/5 144/3/5 143/3/5
f 175/4/5 143/4/5 174/4/5
f 176/4/5 145/4/5 144/4/5
f 176/3/5 144/3/5 175/3/5
f 177/3/5 146/3/5 145/3/5
f 177/4/5 145/4/5 176/4/5
f 178/4/5 147/4/5 146/4/5
f 178/3/5 146/3/5 177/3/5
f 179/3/5 148/3/5 147/3/5
f 179/4/5 147/4/5 178/4/5
f 180/4/5 149/4/5 148/4/5
f 180/3/5 148/3/5 179/3/5
f 181/3/5 150/3/5 149/3/5
f 181/4/5 149/4/5 180/4/5
f 182/4/5 151/4/5 150/4/5
f 182/3/5 150/3/5 181/3/5
f 183/3/5 152/3/5 151/3/5
f 183/4/5 151/4/5 182/4/5
f 184/4/5 153/4/5 152/4/5
f 184/3/5 152/3/5 183/3/5
f 185/3/5 154/3/5 153/3/5
f 185/4/5 153/4/5 184/4/5
f 186/4/5 155/4/5 154/4/5
f 186/3/5 154/3/5 185/3/5
f 187/3/5 156/3/5 155/3/5
f 187/4/5 155/4/5 186/4/5
f 188/4/5 157/4/5 156/4/5
f 188/3/5 156/3/5 187/3/5
f 189/3/5 158/3/5 157/3/5
f 189/4/5 157/4/5 188/4/5
f 190/4/5 159/4/5 158/4/5
f 190/3/5 158/3/5 189/3/5
f 191/3/5 160/3/5 159/3/5
f 191/4/5 159/4/5 190/4/5
f 192/4/5 161/4/5 160/4/5
f 192/3/5 160/3/5 191/3/5
f 193/3/5 162/3/5 161/3/5
f 193/4/5 161/4/5 192/4/5
f 194/4/5 163/4/5 162/4/5
f 194/3/5 162/3/5 193/3/5
f 195/3/5 164/3/5 163/3/5
f 195/4/5 163/4/5 194/4/5
f 196/4/5 165/4/5 164/4/5
f 196/3/5 164/3/5 195/3/5
f 197/3/5 166/3/5 165/3/5
f 197/4/5 165/4/5 196/4/5
f 198/4/5 167/4/5 166/4/5
f 198/3/5 166/3/5 197/3/5
f 199/3/5 168/3/5 167/3/5
f 199/4/5 167/4/5 198/4/5
f 200/4/5 169/4/5 168/4/5
f 200/3/5 168/3/5 199/3/5
f 201/3/5 170/3/5 169/3/5
f 201/4/5 169/4/5 200/4/5
f 202/4/5 171/4/5 170/4/5
f 202/3/5 170/3/5 201/3/5
f 203/3/5 172/3/5 171/3/5
f 203/4/5 171/4/5 202/4/5
f 204/4/5 173/4/5 172/4/5
f 204/3/5 172/3/5 203/3/5
f 205/3/5 141/3/5 173/3/5
f 205/4/5 173/4/5 204/4/5
f 206/3/5 204/3/5 203/3/5
f 206/3/5 203/3/5 202/3/5
f 206/3/5 205/3/5 204/3/5
f 206/3/5 202/3/5 201/3/5
f 206/3/5 201/3/5 200/3/5
f 206/3/5 200/3/5 199/3/5
f 206/3/5 199/3/5 198/3/5
f 206/3/5 198/3/5 197/3/5
f 206/3/5 197/3/5 196/3/5
f 206/3/5 196/3/5 195/3/5
f 206/3/5 195/3/5 194/3/5
f 206/3/5 194/3/5 193/3/5
f 206/3/5 193/3/5 192/3/5
f 206/3/5 192/3/5 191/3/5
f 206/3/5 191/3/5 190/3/5
f 206/3/5 190/3/5 189/3/5
f 206/3/5 189/3/5 188/3/5
f 206/3/5 188/3/5 187/3/5
f 206/3/5 187/3/5 186/3/5
f 206/3/5 186/3/5 185/3/5
f 206/3/5 185/3/5 184/3/5
f 206/3/5 184/3/5 183/3/5
f 206/3/5 183/3/5 182/3/5
f 206/3/5 182/3/5 181/3/5
f 206/3/5 181/3/5 180/3/5
f 206/3/5 180/3/5 179/3/5
f 206/3/5 179/3/5 178/3/5
f 206/3/5 178/3/5 177/3/5
f 206/3/5 177/3/5 176/3/5
f 206/3/5 176/3/5 175/3/5
f 206/3/5 175/3/5 174/3/5
f 206/3/5 174/3/5 137/3/5
f 207/3/5 141/3/5 205/3/5
f 207/3/5 205/3/5 206/3/5
f 208/3/6 209/3/6 210/3/6
f 210/3/6 209/3/6 211/3/6
f 208/3/6 210/3/6 212/3/6
f 211/3/6 209/3/6 215/3/6
f 212/3/6 213/3/6 216/3/6
f 208/3/6 212/3/6 216/3/6
f 216/3/6 213/3/6 217/3/6
f 214/3/6 215/3/6 218/3/6
f 215/3/6 209/3/6 219/3/6
f 218/3/6 215/3/6 219/3/6
f 220/3/6 221/3/6 222/3/6
f 222/3/6 221/3/6 223/3/6
f 220/3/6 222/3/6 224/3/6
f 223/3/6 221/3/6 227/3/6
f 224/3/6 225/3/6 228/3/6
f 220/3/6 224/3/6 228/3/6
f 228/3/6 225/3/6 229/3/6
f 226/3/6 227/3/6 230/3/6
f 227/3/6 221/3/6 231/3/6
f 230/3/6 227/3/6 231/3/6
f 232/3/6 233/3/6 234/3/6
f 234/3/6 233/3/6 235/3/6
f 232/3/6 234/3/6 236/3/6
f 235/3/6 233/3/6 239/3/6
f 236/3/6 237/3/6 240/3/6
f 232/3/6 236/3/6 240/3/6
f 240/3/6 237/3/6 241/3/6
f 238/3/6 239/3/6 242/3/6
f 239/3/6 233/3/6 243/3/6
f 242/3/6 239/3/6 243/3/6
f 244/3/6 245/3/6 246/3/6
f 246/3/6 245/3/6 247/3/6
f 247/3/6 245/3/6 248/3/6
f 248/3/6 245/3/6 249/3/6
f 247/3/6 248/3/6 250/3/6
f 250/3/6 248/3/6 251/3/6
