# MagicaVoxel @ Ephtracy

# group
o 

# material
mtllib porte_crayons.mtl
usemtl palette

# normals
vn -1 0 0
vn 1 0 0
vn 0 0 1
vn 0 0 -1
vn 0 -1 0
vn 0 1 0

# texcoords
vt 0.552734 0.5
vt 0.802734 0.5
vt 0.830078 0.5
vt 0.853516 0.5
vt 0.900391 0.5
vt 0.923828 0.5
vt 0.951172 0.5
vt 0.962891 0.5
vt 0.982422 0.5
vt 0.986328 0.5

# verts
v 0 2 -0.1
v 0 2 -0.4
v 0 2.1 -0.1
v 0 2.1 -0.4
v 0 2.2 -0.1
v 0 2.2 -0.4
v 0 2.3 -0.1
v 0 2.3 -0.4
v 0 2.5 -0.1
v 0 2.5 -0.4
v 0.1 2 0
v 0.1 2 -0.1
v 0.1 2 -0.4
v 0.1 2 -0.5
v 0.1 2.1 0
v 0.1 2.1 -0.1
v 0.1 2.1 -0.4
v 0.1 2.1 -0.5
v 0.1 2.2 0
v 0.1 2.2 -0.1
v 0.1 2.2 -0.4
v 0.1 2.2 -0.5
v 0.1 2.3 0
v 0.1 2.3 -0.1
v 0.1 2.3 -0.4
v 0.1 2.3 -0.5
v 0.1 2.5 0
v 0.1 2.5 -0.1
v 0.1 2.5 -0.2
v 0.1 2.5 -0.3
v 0.1 2.5 -0.4
v 0.1 2.5 -0.5
v 0.1 2.7 -0.1
v 0.1 2.7 -0.2
v 0.1 2.8 -0.3
v 0.1 2.8 -0.4
v 0.2 2.1 -0.2
v 0.2 2.1 -0.3
v 0.2 2.7 -0.2
v 0.2 2.7 -0.3
v 0.3 2.5 -0.1
v 0.3 2.5 -0.2
v 0.3 2.6 -0.1
v 0.3 2.6 -0.2
v 0.3 2.7 -0.2
v 0.3 2.7 -0.3
v 0.3 2.8 -0.2
v 0.3 2.8 -0.3
v 0.4 2.1 -0.3
v 0.4 2.1 -0.4
v 0.4 2.2 -0.3
v 0.4 2.2 -0.4
v 0.4 2.3 -0.3
v 0.4 2.3 -0.4
v 0.4 2.5 -0.3
v 0.4 2.5 -0.4
v 0.1 2.1 -0.2
v 0.1 2.1 -0.3
v 0.1 2.2 -0.2
v 0.1 2.2 -0.3
v 0.1 2.3 -0.2
v 0.1 2.3 -0.3
v 0.1 2.5 -0.2
v 0.1 2.5 -0.3
v 0.2 2.5 -0.1
v 0.2 2.5 -0.2
v 0.2 2.6 -0.3
v 0.2 2.6 -0.4
v 0.2 2.7 -0.1
v 0.2 2.7 -0.2
v 0.2 2.7 -0.3
v 0.2 2.8 -0.3
v 0.2 2.8 -0.4
v 0.3 2.1 -0.3
v 0.3 2.1 -0.4
v 0.3 2.2 -0.4
v 0.3 2.3 -0.4
v 0.3 2.5 -0.4
v 0.3 2.6 -0.3
v 0.3 2.6 -0.4
v 0.4 2 0
v 0.4 2 -0.1
v 0.4 2 -0.4
v 0.4 2 -0.5
v 0.4 2.1 0
v 0.4 2.1 -0.1
v 0.4 2.1 -0.4
v 0.4 2.1 -0.5
v 0.4 2.2 0
v 0.4 2.2 -0.1
v 0.4 2.2 -0.4
v 0.4 2.2 -0.5
v 0.4 2.3 0
v 0.4 2.3 -0.1
v 0.4 2.3 -0.4
v 0.4 2.3 -0.5
v 0.4 2.5 0
v 0.4 2.5 -0.1
v 0.4 2.5 -0.2
v 0.4 2.5 -0.3
v 0.4 2.5 -0.4
v 0.4 2.5 -0.5
v 0.4 2.6 -0.1
v 0.4 2.6 -0.2
v 0.4 2.8 -0.2
v 0.4 2.8 -0.3
v 0.5 2 -0.1
v 0.5 2 -0.4
v 0.5 2.1 -0.1
v 0.5 2.1 -0.4
v 0.5 2.2 -0.1
v 0.5 2.2 -0.4
v 0.5 2.3 -0.1
v 0.5 2.3 -0.4
v 0.5 2.5 -0.1
v 0.5 2.5 -0.4
v 0.1 2 0
v 0.1 2.1 0
v 0.1 2.2 0
v 0.1 2.3 0
v 0.1 2.5 0
v 0.4 2 0
v 0.4 2.1 0
v 0.4 2.2 0
v 0.4 2.3 0
v 0.4 2.5 0
v 0 2 -0.1
v 0 2.1 -0.1
v 0 2.2 -0.1
v 0 2.3 -0.1
v 0 2.5 -0.1
v 0.1 2 -0.1
v 0.1 2.1 -0.1
v 0.1 2.2 -0.1
v 0.1 2.3 -0.1
v 0.1 2.5 -0.1
v 0.1 2.7 -0.1
v 0.2 2.5 -0.1
v 0.2 2.7 -0.1
v 0.3 2.5 -0.1
v 0.3 2.6 -0.1
v 0.4 2 -0.1
v 0.4 2.1 -0.1
v 0.4 2.2 -0.1
v 0.4 2.3 -0.1
v 0.4 2.5 -0.1
v 0.4 2.6 -0.1
v 0.5 2 -0.1
v 0.5 2.1 -0.1
v 0.5 2.2 -0.1
v 0.5 2.3 -0.1
v 0.5 2.5 -0.1
v 0.2 2.5 -0.2
v 0.2 2.7 -0.2
v 0.3 2.5 -0.2
v 0.3 2.6 -0.2
v 0.3 2.7 -0.2
v 0.3 2.8 -0.2
v 0.4 2.6 -0.2
v 0.4 2.8 -0.2
v 0.1 2.1 -0.3
v 0.1 2.2 -0.3
v 0.1 2.3 -0.3
v 0.1 2.5 -0.3
v 0.1 2.8 -0.3
v 0.2 2.1 -0.3
v 0.2 2.7 -0.3
v 0.2 2.8 -0.3
v 0.3 2.1 -0.4
v 0.3 2.2 -0.4
v 0.3 2.3 -0.4
v 0.3 2.5 -0.4
v 0.4 2.1 -0.4
v 0.4 2.2 -0.4
v 0.4 2.3 -0.4
v 0.4 2.5 -0.4
v 0.1 2.1 -0.2
v 0.1 2.2 -0.2
v 0.1 2.3 -0.2
v 0.1 2.5 -0.2
v 0.1 2.7 -0.2
v 0.2 2.1 -0.2
v 0.2 2.7 -0.2
v 0.2 2.6 -0.3
v 0.2 2.7 -0.3
v 0.3 2.1 -0.3
v 0.3 2.6 -0.3
v 0.3 2.7 -0.3
v 0.3 2.8 -0.3
v 0.4 2.1 -0.3
v 0.4 2.2 -0.3
v 0.4 2.3 -0.3
v 0.4 2.5 -0.3
v 0.4 2.8 -0.3
v 0 2 -0.4
v 0 2.1 -0.4
v 0 2.2 -0.4
v 0 2.3 -0.4
v 0 2.5 -0.4
v 0.1 2 -0.4
v 0.1 2.1 -0.4
v 0.1 2.2 -0.4
v 0.1 2.3 -0.4
v 0.1 2.5 -0.4
v 0.1 2.8 -0.4
v 0.2 2.5 -0.4
v 0.2 2.6 -0.4
v 0.2 2.8 -0.4
v 0.3 2.5 -0.4
v 0.3 2.6 -0.4
v 0.4 2 -0.4
v 0.4 2.1 -0.4
v 0.4 2.2 -0.4
v 0.4 2.3 -0.4
v 0.4 2.5 -0.4
v 0.5 2 -0.4
v 0.5 2.1 -0.4
v 0.5 2.2 -0.4
v 0.5 2.3 -0.4
v 0.5 2.5 -0.4
v 0.1 2 -0.5
v 0.1 2.1 -0.5
v 0.1 2.2 -0.5
v 0.1 2.3 -0.5
v 0.1 2.5 -0.5
v 0.4 2 -0.5
v 0.4 2.1 -0.5
v 0.4 2.2 -0.5
v 0.4 2.3 -0.5
v 0.4 2.5 -0.5
v 0.1 2 0
v 0.4 2 0
v 0 2 -0.1
v 0.1 2 -0.1
v 0.4 2 -0.1
v 0.5 2 -0.1
v 0 2 -0.4
v 0.1 2 -0.4
v 0.4 2 -0.4
v 0.5 2 -0.4
v 0.1 2 -0.5
v 0.4 2 -0.5
v 0.1 2.1 -0.2
v 0.2 2.1 -0.2
v 0.1 2.1 -0.3
v 0.2 2.1 -0.3
v 0.3 2.1 -0.3
v 0.4 2.1 -0.3
v 0.3 2.1 -0.4
v 0.4 2.1 -0.4
v 0.1 2.5 0
v 0.4 2.5 0
v 0 2.5 -0.1
v 0.1 2.5 -0.1
v 0.2 2.5 -0.1
v 0.3 2.5 -0.1
v 0.4 2.5 -0.1
v 0.5 2.5 -0.1
v 0.1 2.5 -0.2
v 0.2 2.5 -0.2
v 0.3 2.5 -0.2
v 0.4 2.5 -0.2
v 0.1 2.5 -0.3
v 0.4 2.5 -0.3
v 0 2.5 -0.4
v 0.1 2.5 -0.4
v 0.2 2.5 -0.4
v 0.3 2.5 -0.4
v 0.4 2.5 -0.4
v 0.5 2.5 -0.4
v 0.1 2.5 -0.5
v 0.4 2.5 -0.5
v 0.3 2.6 -0.1
v 0.4 2.6 -0.1
v 0.3 2.6 -0.2
v 0.4 2.6 -0.2
v 0.2 2.6 -0.3
v 0.3 2.6 -0.3
v 0.2 2.6 -0.4
v 0.3 2.6 -0.4
v 0.1 2.7 -0.1
v 0.2 2.7 -0.1
v 0.1 2.7 -0.2
v 0.2 2.7 -0.2
v 0.3 2.7 -0.2
v 0.2 2.7 -0.3
v 0.3 2.7 -0.3
v 0.3 2.8 -0.2
v 0.4 2.8 -0.2
v 0.1 2.8 -0.3
v 0.2 2.8 -0.3
v 0.3 2.8 -0.3
v 0.4 2.8 -0.3
v 0.1 2.8 -0.4
v 0.2 2.8 -0.4

# faces
f 3/6/1 2/6/1 1/6/1
f 4/6/1 2/6/1 3/6/1
f 5/3/1 4/3/1 3/3/1
f 6/3/1 4/3/1 5/3/1
f 7/2/1 6/2/1 5/2/1
f 8/2/1 6/2/1 7/2/1
f 9/6/1 8/6/1 7/6/1
f 10/6/1 8/6/1 9/6/1
f 15/6/1 12/6/1 11/6/1
f 16/6/1 12/6/1 15/6/1
f 17/6/1 14/6/1 13/6/1
f 18/6/1 14/6/1 17/6/1
f 19/3/1 16/3/1 15/3/1
f 20/3/1 16/3/1 19/3/1
f 21/3/1 18/3/1 17/3/1
f 22/3/1 18/3/1 21/3/1
f 23/2/1 20/2/1 19/2/1
f 24/2/1 20/2/1 23/2/1
f 25/2/1 22/2/1 21/2/1
f 26/2/1 22/2/1 25/2/1
f 27/6/1 24/6/1 23/6/1
f 28/6/1 24/6/1 27/6/1
f 31/6/1 26/6/1 25/6/1
f 32/6/1 26/6/1 31/6/1
f 33/8/1 29/8/1 28/8/1
f 34/8/1 29/8/1 33/8/1
f 35/10/1 31/10/1 30/10/1
f 36/10/1 31/10/1 35/10/1
f 39/4/1 38/4/1 37/4/1
f 40/4/1 38/4/1 39/4/1
f 43/5/1 42/5/1 41/5/1
f 44/5/1 42/5/1 43/5/1
f 47/9/1 46/9/1 45/9/1
f 48/9/1 46/9/1 47/9/1
f 51/3/1 50/3/1 49/3/1
f 52/3/1 50/3/1 51/3/1
f 53/2/1 52/2/1 51/2/1
f 54/2/1 52/2/1 53/2/1
f 55/6/1 54/6/1 53/6/1
f 56/6/1 54/6/1 55/6/1
f 57/3/2 58/3/2 59/3/2
f 59/3/2 58/3/2 60/3/2
f 59/2/2 60/2/2 61/2/2
f 61/2/2 60/2/2 62/2/2
f 61/6/2 62/6/2 63/6/2
f 63/6/2 62/6/2 64/6/2
f 65/8/2 66/8/2 69/8/2
f 69/8/2 66/8/2 70/8/2
f 67/10/2 68/10/2 71/10/2
f 71/10/2 68/10/2 72/10/2
f 72/10/2 68/10/2 73/10/2
f 74/7/2 75/7/2 76/7/2
f 74/7/2 76/7/2 77/7/2
f 74/7/2 77/7/2 78/7/2
f 74/7/2 78/7/2 79/7/2
f 79/7/2 78/7/2 80/7/2
f 81/6/2 82/6/2 85/6/2
f 85/6/2 82/6/2 86/6/2
f 83/6/2 84/6/2 87/6/2
f 87/6/2 84/6/2 88/6/2
f 85/3/2 86/3/2 89/3/2
f 89/3/2 86/3/2 90/3/2
f 87/3/2 88/3/2 91/3/2
f 91/3/2 88/3/2 92/3/2
f 89/2/2 90/2/2 93/2/2
f 93/2/2 90/2/2 94/2/2
f 91/2/2 92/2/2 95/2/2
f 95/2/2 92/2/2 96/2/2
f 93/6/2 94/6/2 97/6/2
f 97/6/2 94/6/2 98/6/2
f 95/6/2 96/6/2 101/6/2
f 101/6/2 96/6/2 102/6/2
f 98/5/2 99/5/2 103/5/2
f 99/9/2 100/9/2 104/9/2
f 103/5/2 99/5/2 104/5/2
f 104/9/2 100/9/2 105/9/2
f 105/9/2 100/9/2 106/9/2
f 107/6/2 108/6/2 109/6/2
f 109/6/2 108/6/2 110/6/2
f 109/3/2 110/3/2 111/3/2
f 111/3/2 110/3/2 112/3/2
f 111/2/2 112/2/2 113/2/2
f 113/2/2 112/2/2 114/2/2
f 113/6/2 114/6/2 115/6/2
f 115/6/2 114/6/2 116/6/2
f 122/6/3 118/6/3 117/6/3
f 123/3/3 119/3/3 118/3/3
f 123/6/3 118/6/3 122/6/3
f 124/2/3 120/2/3 119/2/3
f 124/3/3 119/3/3 123/3/3
f 125/6/3 121/6/3 120/6/3
f 125/2/3 120/2/3 124/2/3
f 126/6/3 121/6/3 125/6/3
f 132/6/3 128/6/3 127/6/3
f 133/3/3 129/3/3 128/3/3
f 133/6/3 128/6/3 132/6/3
f 134/2/3 130/2/3 129/2/3
f 134/3/3 129/3/3 133/3/3
f 135/6/3 131/6/3 130/6/3
f 135/2/3 130/2/3 134/2/3
f 136/6/3 131/6/3 135/6/3
f 138/8/3 137/8/3 136/8/3
f 139/8/3 137/8/3 138/8/3
f 146/5/3 141/5/3 140/5/3
f 147/5/3 141/5/3 146/5/3
f 148/6/3 143/6/3 142/6/3
f 149/3/3 144/3/3 143/3/3
f 149/6/3 143/6/3 148/6/3
f 150/2/3 145/2/3 144/2/3
f 150/3/3 144/3/3 149/3/3
f 151/6/3 146/6/3 145/6/3
f 151/2/3 145/2/3 150/2/3
f 152/6/3 146/6/3 151/6/3
f 155/4/3 154/4/3 153/4/3
f 156/4/3 154/4/3 155/4/3
f 157/4/3 154/4/3 156/4/3
f 159/9/3 158/9/3 157/9/3
f 159/9/3 157/9/3 156/9/3
f 160/9/3 158/9/3 159/9/3
f 166/10/3 162/10/3 161/10/3
f 166/10/3 165/10/3 164/10/3
f 166/10/3 164/10/3 163/10/3
f 166/10/3 163/10/3 162/10/3
f 167/10/3 165/10/3 166/10/3
f 168/10/3 165/10/3 167/10/3
f 173/3/3 170/3/3 169/3/3
f 174/2/3 171/2/3 170/2/3
f 174/3/3 170/3/3 173/3/3
f 175/6/3 172/6/3 171/6/3
f 175/2/3 171/2/3 174/2/3
f 176/6/3 172/6/3 175/6/3
f 177/8/4 178/8/4 182/8/4
f 180/8/4 181/8/4 182/8/4
f 179/8/4 180/8/4 182/8/4
f 178/8/4 179/8/4 182/8/4
f 182/8/4 181/8/4 183/8/4
f 184/4/4 185/4/4 187/4/4
f 187/4/4 185/4/4 188/4/4
f 186/9/4 187/9/4 190/9/4
f 188/9/4 189/9/4 190/9/4
f 187/9/4 188/9/4 190/9/4
f 190/9/4 189/9/4 191/9/4
f 191/9/4 189/9/4 192/9/4
f 192/9/4 189/9/4 193/9/4
f 193/9/4 189/9/4 194/9/4
f 195/6/4 196/6/4 200/6/4
f 196/3/4 197/3/4 201/3/4
f 200/6/4 196/6/4 201/6/4
f 197/2/4 198/2/4 202/2/4
f 201/3/4 197/3/4 202/3/4
f 198/6/4 199/6/4 203/6/4
f 202/2/4 198/2/4 203/2/4
f 203/6/4 199/6/4 204/6/4
f 204/10/4 205/10/4 206/10/4
f 206/10/4 205/10/4 207/10/4
f 207/10/4 205/10/4 208/10/4
f 206/7/4 207/7/4 209/7/4
f 209/7/4 207/7/4 210/7/4
f 211/6/4 212/6/4 216/6/4
f 212/3/4 213/3/4 217/3/4
f 216/6/4 212/6/4 217/6/4
f 213/2/4 214/2/4 218/2/4
f 217/3/4 213/3/4 218/3/4
f 214/6/4 215/6/4 219/6/4
f 218/2/4 214/2/4 219/2/4
f 219/6/4 215/6/4 220/6/4
f 221/6/4 222/6/4 226/6/4
f 222/3/4 223/3/4 227/3/4
f 226/6/4 222/6/4 227/6/4
f 223/2/4 224/2/4 228/2/4
f 227/3/4 223/3/4 228/3/4
f 224/6/4 225/6/4 229/6/4
f 228/2/4 224/2/4 229/2/4
f 229/6/4 225/6/4 230/6/4
f 234/6/5 232/6/5 231/6/5
f 235/6/5 232/6/5 234/6/5
f 237/6/5 234/6/5 233/6/5
f 237/6/5 236/6/5 235/6/5
f 237/6/5 235/6/5 234/6/5
f 238/6/5 236/6/5 237/6/5
f 239/6/5 236/6/5 238/6/5
f 240/6/5 236/6/5 239/6/5
f 241/6/5 239/6/5 238/6/5
f 242/6/5 239/6/5 241/6/5
f 243/6/6 244/6/6 245/6/6
f 245/6/6 244/6/6 246/6/6
f 247/6/6 248/6/6 249/6/6
f 249/6/6 248/6/6 250/6/6
f 251/6/6 252/6/6 254/6/6
f 254/6/6 252/6/6 255/6/6
f 255/6/6 252/6/6 256/6/6
f 256/6/6 252/6/6 257/6/6
f 253/6/6 254/6/6 259/6/6
f 255/1/6 256/1/6 260/1/6
f 260/1/6 256/1/6 261/1/6
f 257/6/6 258/6/6 262/6/6
f 253/6/6 259/6/6 263/6/6
f 262/6/6 258/6/6 264/6/6
f 253/6/6 263/6/6 265/6/6
f 265/6/6 263/6/6 266/6/6
f 264/6/6 258/6/6 269/6/6
f 269/6/6 258/6/6 270/6/6
f 267/6/6 268/6/6 271/6/6
f 268/6/6 269/6/6 271/6/6
f 266/6/6 267/6/6 271/6/6
f 271/6/6 269/6/6 272/6/6
f 273/5/6 274/5/6 275/5/6
f 275/5/6 274/5/6 276/5/6
f 277/7/6 278/7/6 279/7/6
f 279/7/6 278/7/6 280/7/6
f 281/8/6 282/8/6 283/8/6
f 283/8/6 282/8/6 284/8/6
f 284/4/6 285/4/6 286/4/6
f 286/4/6 285/4/6 287/4/6
f 288/9/6 289/9/6 292/9/6
f 292/9/6 289/9/6 293/9/6
f 290/10/6 291/10/6 294/10/6
f 294/10/6 291/10/6 295/10/6
