# MagicaVoxel @ Ephtracy

# group
g tele

# material
mtllib tele.mtl
usemtl palette

# normals
vn -1 0 0
vn 1 0 0
vn 0 0 1
vn 0 0 -1
vn 0 -1 0
vn 0 1 0

# texcoords
vt 0.853516 0.5
vt 0.892578 0.5
vt 0.990234 0.5
vt 0.994141 0.5

# verts
v -19 20 -18
v -19 20 -19
v -19 39 -18
v -19 39 -19
v -18 22 -19
v -18 22 -20
v -18 38 -19
v -18 38 -20
v 8 22 -19
v 8 22 -20
v 8 38 -19
v 8 38 -20
v 9 20 -18
v 9 20 -19
v 9 39 -18
v 9 39 -19
v -19 20 -18
v -19 39 -18
v -18 22 -18
v -18 38 -18
v 4 21 -18
v 4 22 -18
v 5 21 -18
v 5 22 -18
v 6 21 -18
v 6 22 -18
v 7 21 -18
v 7 22 -18
v 8 22 -18
v 8 38 -18
v 9 20 -18
v 9 39 -18
v -19 20 -19
v -19 39 -19
v -18 22 -19
v -18 38 -19
v 4 21 -19
v 4 22 -19
v 5 21 -19
v 5 22 -19
v 6 21 -19
v 6 22 -19
v 7 21 -19
v 7 22 -19
v 8 22 -19
v 8 38 -19
v 9 20 -19
v 9 39 -19
v -18 22 -20
v -18 38 -20
v 8 22 -20
v 8 38 -20
v -19 20 -18
v 9 20 -18
v -19 20 -19
v 9 20 -19
v -18 22 -19
v 4 22 -19
v 5 22 -19
v 6 22 -19
v 7 22 -19
v 8 22 -19
v -18 22 -20
v 8 22 -20
v -18 38 -19
v 8 38 -19
v -18 38 -20
v 8 38 -20
v -19 39 -18
v 9 39 -18
v -19 39 -19
v 9 39 -19

# faces
f 3/4/1 2/4/1 1/4/1
f 4/4/1 2/4/1 3/4/1
f 7/3/1 6/3/1 5/3/1
f 8/3/1 6/3/1 7/3/1
f 9/3/2 10/3/2 11/3/2
f 11/3/2 10/3/2 12/3/2
f 13/4/2 14/4/2 15/4/2
f 15/4/2 14/4/2 16/4/2
f 19/4/3 18/4/3 17/4/3
f 20/4/3 18/4/3 19/4/3
f 21/4/3 19/4/3 17/4/3
f 22/3/3 20/3/3 19/3/3
f 22/4/3 19/4/3 21/4/3
f 23/4/3 21/4/3 17/4/3
f 23/2/3 22/2/3 21/2/3
f 24/3/3 20/3/3 22/3/3
f 24/2/3 22/2/3 23/2/3
f 25/4/3 23/4/3 17/4/3
f 25/4/3 24/4/3 23/4/3
f 26/3/3 20/3/3 24/3/3
f 26/4/3 24/4/3 25/4/3
f 27/4/3 25/4/3 17/4/3
f 27/1/3 26/1/3 25/1/3
f 28/3/3 20/3/3 26/3/3
f 28/1/3 26/1/3 27/1/3
f 29/4/3 28/4/3 27/4/3
f 29/3/3 20/3/3 28/3/3
f 30/4/3 18/4/3 20/4/3
f 30/3/3 20/3/3 29/3/3
f 31/4/3 29/4/3 27/4/3
f 31/4/3 27/4/3 17/4/3
f 31/4/3 30/4/3 29/4/3
f 32/4/3 18/4/3 30/4/3
f 32/4/3 30/4/3 31/4/3
f 33/4/4 34/4/4 35/4/4
f 35/4/4 34/4/4 36/4/4
f 33/4/4 35/4/4 37/4/4
f 37/4/4 35/4/4 38/4/4
f 33/4/4 37/4/4 39/4/4
f 37/2/4 38/2/4 39/2/4
f 39/2/4 38/2/4 40/2/4
f 33/4/4 39/4/4 41/4/4
f 39/4/4 40/4/4 41/4/4
f 41/4/4 40/4/4 42/4/4
f 33/4/4 41/4/4 43/4/4
f 41/1/4 42/1/4 43/1/4
f 43/1/4 42/1/4 44/1/4
f 43/4/4 44/4/4 45/4/4
f 36/4/4 34/4/4 46/4/4
f 43/4/4 45/4/4 47/4/4
f 45/4/4 46/4/4 47/4/4
f 33/4/4 43/4/4 47/4/4
f 46/4/4 34/4/4 48/4/4
f 47/4/4 46/4/4 48/4/4
f 49/3/4 50/3/4 51/3/4
f 51/3/4 50/3/4 52/3/4
f 55/4/5 54/4/5 53/4/5
f 56/4/5 54/4/5 55/4/5
f 63/3/5 58/3/5 57/3/5
f 63/3/5 62/3/5 61/3/5
f 63/3/5 61/3/5 60/3/5
f 63/3/5 60/3/5 59/3/5
f 63/3/5 59/3/5 58/3/5
f 64/3/5 62/3/5 63/3/5
f 65/3/6 66/3/6 67/3/6
f 67/3/6 66/3/6 68/3/6
f 69/4/6 70/4/6 71/4/6
f 71/4/6 70/4/6 72/4/6
