# MagicaVoxel @ Ephtracy

# group
g VIRUS

# material
mtllib VIRUS.mtl
usemtl palette

# normals
vn -1 0 0
vn 1 0 0
vn 0 0 1
vn 0 0 -1
vn 0 -1 0
vn 0 1 0

# texcoords
vt 0.0566406 0.5
vt 0.0605469 0.5
vt 0.537109 0.5
vt 0.958984 0.5
vt 0.974609 0.5
vt 0.978516 0.5
vt 0.982422 0.5

# verts
v -3 7 6
v -3 7 -9
v -3 8 7
v -3 8 6
v -3 8 4
v -3 8 -8
v -3 8 -9
v -3 8 -10
v -3 9 8
v -3 9 7
v -3 9 4
v -3 9 -8
v -3 9 -9
v -3 10 8
v -3 10 7
v -3 10 -9
v -3 10 -10
v -3 11 7
v -3 11 -9
v -2 0 7
v -2 0 5
v -2 0 -8
v -2 0 -10
v -2 6 8
v -2 6 7
v -2 6 5
v -2 6 -8
v -2 6 -10
v -2 6 -11
v -2 7 6
v -2 7 5
v -2 7 -8
v -2 7 -9
v -2 8 10
v -2 8 8
v -2 8 7
v -2 8 6
v -2 8 -9
v -2 8 -10
v -2 8 -11
v -2 8 -12
v -2 9 13
v -2 9 11
v -2 9 10
v -2 9 8
v -2 9 7
v -2 10 11
v -2 10 8
v -2 10 7
v -2 10 -9
v -2 10 -10
v -2 11 13
v -2 11 12
v -2 11 7
v -2 11 -9
v -2 11 -11
v -2 11 -12
v -2 12 13
v -2 12 12
v -2 12 10
v -2 12 9
v -2 12 -11
v -2 13 13
v -2 13 10
v -2 13 9
v -1 5 4
v -1 5 -7
v -1 6 4
v -1 6 -7
v -1 7 9
v -1 7 8
v -1 7 -11
v -1 7 -12
v -1 8 11
v -1 8 10
v -1 8 9
v -1 8 8
v -1 8 -11
v -1 8 -12
v -1 9 14
v -1 9 13
v -1 9 11
v -1 9 10
v -1 10 14
v -1 10 13
v -1 11 14
v -1 11 13
v -1 11 -11
v -1 11 -12
v -1 12 9
v -1 12 8
v -1 12 -11
v -1 12 -12
v -1 13 11
v -1 13 10
v -1 13 9
v -1 13 8
v -1 14 11
v -1 14 9
v 0 4 -1
v 0 4 -4
v 0 5 -1
v 0 5 -4
v 0 6 9
v 0 6 8
v 0 7 9
v 0 7 8
v 0 9 -12
v 0 9 -16
v 0 10 -16
v 0 10 -17
v 0 11 -12
v 0 11 -15
v 0 11 -17
v 0 11 -18
v 0 12 2
v 0 12 -10
v 0 12 -15
v 0 12 -16
v 0 13 2
v 0 13 -10
v 0 13 -16
v 0 13 -17
v 0 13 -18
v 0 13 -19
v 0 17 -18
v 0 17 -19
v 0 18 -17
v 0 18 -18
v 1 0 7
v 1 0 5
v 1 0 -8
v 1 0 -10
v 1 6 7
v 1 6 5
v 1 6 -8
v 1 6 -10
v 1 13 11
v 1 13 9
v 1 14 11
v 1 14 9
v 0 0 7
v 0 0 5
v 0 0 -8
v 0 0 -10
v 0 6 7
v 0 6 5
v 0 6 -8
v 0 6 -10
v 0 13 11
v 0 13 9
v 0 14 11
v 0 14 9
v 1 4 -1
v 1 4 -4
v 1 5 -1
v 1 5 -4
v 1 6 9
v 1 6 8
v 1 7 9
v 1 7 8
v 1 9 -12
v 1 9 -16
v 1 10 -16
v 1 10 -17
v 1 11 -12
v 1 11 -15
v 1 11 -17
v 1 11 -18
v 1 12 2
v 1 12 -10
v 1 12 -15
v 1 12 -16
v 1 13 2
v 1 13 -10
v 1 13 -16
v 1 13 -17
v 1 13 -18
v 1 13 -19
v 1 17 -18
v 1 17 -19
v 1 18 -17
v 1 18 -18
v 2 5 4
v 2 5 -7
v 2 6 4
v 2 6 -7
v 2 7 9
v 2 7 8
v 2 7 -11
v 2 7 -12
v 2 8 11
v 2 8 10
v 2 8 9
v 2 8 8
v 2 8 -11
v 2 8 -12
v 2 9 14
v 2 9 13
v 2 9 11
v 2 9 10
v 2 10 14
v 2 10 13
v 2 11 14
v 2 11 13
v 2 11 -11
v 2 11 -12
v 2 12 9
v 2 12 8
v 2 12 -11
v 2 12 -12
v 2 13 11
v 2 13 10
v 2 13 9
v 2 13 8
v 2 14 11
v 2 14 9
v 3 0 7
v 3 0 5
v 3 0 -8
v 3 0 -10
v 3 6 8
v 3 6 7
v 3 6 5
v 3 6 -8
v 3 6 -10
v 3 6 -11
v 3 7 6
v 3 7 5
v 3 7 -8
v 3 7 -9
v 3 8 10
v 3 8 8
v 3 8 7
v 3 8 6
v 3 8 -9
v 3 8 -10
v 3 8 -11
v 3 8 -12
v 3 9 13
v 3 9 11
v 3 9 10
v 3 9 8
v 3 9 7
v 3 10 11
v 3 10 8
v 3 10 7
v 3 10 -9
v 3 10 -10
v 3 11 13
v 3 11 12
v 3 11 7
v 3 11 -9
v 3 11 -11
v 3 11 -12
v 3 12 13
v 3 12 12
v 3 12 10
v 3 12 9
v 3 12 -11
v 3 13 13
v 3 13 10
v 3 13 9
v 4 7 6
v 4 7 -9
v 4 8 7
v 4 8 6
v 4 8 4
v 4 8 -8
v 4 8 -9
v 4 8 -10
v 4 9 8
v 4 9 7
v 4 9 4
v 4 9 -8
v 4 9 -9
v 4 10 8
v 4 10 7
v 4 10 -9
v 4 10 -10
v 4 11 7
v 4 11 -9
v -1 9 14
v -1 10 14
v -1 11 14
v 0 9 14
v 0 10 14
v 0 11 14
v 1 9 14
v 1 10 14
v 1 11 14
v 2 9 14
v 2 10 14
v 2 11 14
v -2 9 13
v -2 11 13
v -2 12 13
v -2 13 13
v -1 9 13
v -1 10 13
v -1 11 13
v -1 12 13
v 0 11 13
v 0 12 13
v 1 11 13
v 1 12 13
v 2 9 13
v 2 10 13
v 2 11 13
v 2 12 13
v 3 9 13
v 3 11 13
v 3 12 13
v 3 13 13
v -1 8 11
v -1 9 11
v -1 13 11
v -1 14 11
v 0 13 11
v 0 14 11
v 1 13 11
v 1 14 11
v 2 8 11
v 2 9 11
v 2 13 11
v 2 14 11
v -2 8 10
v -2 9 10
v -1 8 10
v -1 9 10
v 2 8 10
v 2 9 10
v 3 8 10
v 3 9 10
v -1 7 9
v -1 8 9
v 0 6 9
v 0 7 9
v 1 6 9
v 1 7 9
v 2 7 9
v 2 8 9
v -3 9 8
v -3 10 8
v -2 6 8
v -2 8 8
v -2 9 8
v -2 10 8
v -1 7 8
v -1 8 8
v 0 6 8
v 0 7 8
v 1 6 8
v 1 7 8
v 2 7 8
v 2 8 8
v 3 6 8
v 3 8 8
v 3 9 8
v 3 10 8
v 4 9 8
v 4 10 8
v -3 8 7
v -3 9 7
v -3 10 7
v -3 11 7
v -2 0 7
v -2 6 7
v -2 8 7
v -2 9 7
v -2 10 7
v -2 11 7
v 0 0 7
v 0 6 7
v 1 0 7
v 1 6 7
v 3 0 7
v 3 6 7
v 3 8 7
v 3 9 7
v 3 10 7
v 3 11 7
v 4 8 7
v 4 9 7
v 4 10 7
v 4 11 7
v -3 7 6
v -3 8 6
v -2 7 6
v -2 8 6
v 3 7 6
v 3 8 6
v 4 7 6
v 4 8 6
v -1 5 4
v -1 6 4
v 2 5 4
v 2 6 4
v 0 12 2
v 0 13 2
v 1 12 2
v 1 13 2
v 0 4 -1
v 0 5 -1
v 1 4 -1
v 1 5 -1
v -2 0 -8
v -2 6 -8
v 0 0 -8
v 0 6 -8
v 1 0 -8
v 1 6 -8
v 3 0 -8
v 3 6 -8
v 0 11 -15
v 0 12 -15
v 1 11 -15
v 1 12 -15
v 0 12 -16
v 0 13 -16
v 1 12 -16
v 1 13 -16
v 0 13 -17
v 0 18 -17
v 1 13 -17
v 1 18 -17
v -2 12 9
v -2 13 9
v -1 12 9
v -1 13 9
v -1 14 9
v 0 13 9
v 0 14 9
v 1 13 9
v 1 14 9
v 2 12 9
v 2 13 9
v 2 14 9
v 3 12 9
v 3 13 9
v -1 12 8
v -1 13 8
v 2 12 8
v 2 13 8
v -2 0 5
v -2 6 5
v 0 0 5
v 0 6 5
v 1 0 5
v 1 6 5
v 3 0 5
v 3 6 5
v 0 4 -4
v 0 5 -4
v 1 4 -4
v 1 5 -4
v -1 5 -7
v -1 6 -7
v 2 5 -7
v 2 6 -7
v -3 7 -9
v -3 8 -9
v -3 10 -9
v -3 11 -9
v -2 7 -9
v -2 8 -9
v -2 10 -9
v -2 11 -9
v 3 7 -9
v 3 8 -9
v 3 10 -9
v 3 11 -9
v 4 7 -9
v 4 8 -9
v 4 10 -9
v 4 11 -9
v -3 8 -10
v -3 10 -10
v -2 0 -10
v -2 6 -10
v -2 8 -10
v -2 10 -10
v 0 0 -10
v 0 6 -10
v 0 12 -10
v 0 13 -10
v 1 0 -10
v 1 6 -10
v 1 12 -10
v 1 13 -10
v 3 0 -10
v 3 6 -10
v 3 8 -10
v 3 10 -10
v 4 8 -10
v 4 10 -10
v -2 6 -11
v -2 8 -11
v -2 11 -11
v -2 12 -11
v -1 7 -11
v -1 8 -11
v -1 11 -11
v -1 12 -11
v 2 7 -11
v 2 8 -11
v 2 11 -11
v 2 12 -11
v 3 6 -11
v 3 8 -11
v 3 11 -11
v 3 12 -11
v -2 8 -12
v -2 11 -12
v -1 7 -12
v -1 8 -12
v -1 11 -12
v -1 12 -12
v 0 8 -12
v 0 9 -12
v 0 11 -12
v 1 8 -12
v 1 9 -12
v 1 11 -12
v 2 7 -12
v 2 8 -12
v 2 11 -12
v 2 12 -12
v 3 8 -12
v 3 11 -12
v 0 9 -16
v 0 10 -16
v 1 9 -16
v 1 10 -16
v 0 10 -17
v 0 11 -17
v 1 10 -17
v 1 11 -17
v 0 11 -18
v 0 13 -18
v 0 17 -18
v 0 18 -18
v 1 11 -18
v 1 13 -18
v 1 17 -18
v 1 18 -18
v 0 13 -19
v 0 17 -19
v 1 13 -19
v 1 17 -19
v -2 0 7
v 0 0 7
v 1 0 7
v 3 0 7
v -2 0 5
v 0 0 5
v 1 0 5
v 3 0 5
v -2 0 -8
v 0 0 -8
v 1 0 -8
v 3 0 -8
v -2 0 -10
v 0 0 -10
v 1 0 -10
v 3 0 -10
v 0 4 -1
v 1 4 -1
v 0 4 -4
v 1 4 -4
v -1 5 4
v 2 5 4
v 0 5 -1
v 1 5 -1
v 0 5 -4
v 1 5 -4
v -1 5 -7
v 2 5 -7
v 0 6 9
v 1 6 9
v -2 6 8
v 0 6 8
v 1 6 8
v 3 6 8
v -2 6 7
v 0 6 7
v 1 6 7
v 3 6 7
v -2 6 5
v 0 6 5
v 1 6 5
v 3 6 5
v -1 6 4
v 2 6 4
v -1 6 -7
v 2 6 -7
v -2 6 -8
v 0 6 -8
v 1 6 -8
v 3 6 -8
v -2 6 -10
v 0 6 -10
v 1 6 -10
v 3 6 -10
v -2 6 -11
v 3 6 -11
v -1 7 9
v 0 7 9
v 1 7 9
v 2 7 9
v -1 7 8
v 0 7 8
v 1 7 8
v 2 7 8
v -3 7 6
v -2 7 6
v 3 7 6
v 4 7 6
v -2 7 5
v 3 7 5
v -2 7 -8
v 3 7 -8
v -3 7 -9
v -2 7 -9
v 3 7 -9
v 4 7 -9
v -1 7 -11
v 2 7 -11
v -1 7 -12
v 2 7 -12
v -1 8 11
v 2 8 11
v -2 8 10
v -1 8 10
v 2 8 10
v 3 8 10
v -1 8 9
v 2 8 9
v -2 8 8
v -1 8 8
v 2 8 8
v 3 8 8
v -3 8 7
v -2 8 7
v 3 8 7
v 4 8 7
v -3 8 6
v -2 8 6
v 3 8 6
v 4 8 6
v -3 8 -9
v -2 8 -9
v 3 8 -9
v 4 8 -9
v -3 8 -10
v -2 8 -10
v 3 8 -10
v 4 8 -10
v -2 8 -11
v -1 8 -11
v 2 8 -11
v 3 8 -11
v -2 8 -12
v -1 8 -12
v 2 8 -12
v 3 8 -12
v -1 9 14
v 0 9 14
v 1 9 14
v 2 9 14
v -2 9 13
v -1 9 13
v 0 9 13
v 1 9 13
v 2 9 13
v 3 9 13
v -2 9 11
v -1 9 11
v 2 9 11
v 3 9 11
v -2 9 10
v -1 9 10
v 2 9 10
v 3 9 10
v -3 9 8
v -2 9 8
v 3 9 8
v 4 9 8
v -3 9 7
v -2 9 7
v 3 9 7
v 4 9 7
v 0 9 -12
v 1 9 -12
v 0 9 -16
v 1 9 -16
v 0 10 -16
v 1 10 -16
v 0 10 -17
v 1 10 -17
v 0 11 -17
v 1 11 -17
v 0 11 -18
v 1 11 -18
v 0 13 -18
v 1 13 -18
v 0 13 -19
v 1 13 -19
v -3 10 8
v -2 10 8
v 3 10 8
v 4 10 8
v -3 10 7
v -2 10 7
v 3 10 7
v 4 10 7
v -3 10 -9
v -2 10 -9
v 3 10 -9
v 4 10 -9
v -3 10 -10
v -2 10 -10
v 3 10 -10
v 4 10 -10
v -1 11 14
v 0 11 14
v 1 11 14
v 2 11 14
v -1 11 13
v 0 11 13
v 1 11 13
v 2 11 13
v -3 11 7
v -2 11 7
v 3 11 7
v 4 11 7
v -3 11 -9
v -2 11 -9
v 3 11 -9
v 4 11 -9
v -2 11 -11
v -1 11 -11
v 2 11 -11
v 3 11 -11
v -2 11 -12
v -1 11 -12
v 0 11 -12
v 1 11 -12
v 2 11 -12
v 3 11 -12
v 0 11 -15
v 1 11 -15
v -2 12 9
v -1 12 9
v 2 12 9
v 3 12 9
v -1 12 8
v 2 12 8
v 0 12 2
v 1 12 2
v 0 12 -10
v 1 12 -10
v -2 12 -11
v -1 12 -11
v 2 12 -11
v 3 12 -11
v -1 12 -12
v 2 12 -12
v 0 12 -15
v 1 12 -15
v 0 12 -16
v 1 12 -16
v -2 13 13
v 3 13 13
v -1 13 11
v 0 13 11
v 1 13 11
v 2 13 11
v -2 13 10
v -1 13 10
v 2 13 10
v 3 13 10
v -2 13 9
v -1 13 9
v 0 13 9
v 1 13 9
v 2 13 9
v 3 13 9
v -1 13 8
v 2 13 8
v 0 13 2
v 1 13 2
v 0 13 -10
v 1 13 -10
v 0 13 -16
v 1 13 -16
v 0 13 -17
v 1 13 -17
v -1 14 11
v 0 14 11
v 1 14 11
v 2 14 11
v -1 14 9
v 0 14 9
v 1 14 9
v 2 14 9
v 0 17 -18
v 1 17 -18
v 0 17 -19
v 1 17 -19
v 0 18 -17
v 1 18 -17
v 0 18 -18
v 1 18 -18

# faces
f 4/6/1 2/6/1 1/6/1
f 5/6/1 2/6/1 4/6/1
f 6/6/1 2/6/1 5/6/1
f 7/6/1 2/6/1 6/6/1
f 10/6/1 4/6/1 3/6/1
f 10/6/1 5/6/1 4/6/1
f 11/7/1 6/7/1 5/7/1
f 11/6/1 5/6/1 10/6/1
f 12/6/1 8/6/1 7/6/1
f 12/7/1 6/7/1 11/7/1
f 12/6/1 7/6/1 6/6/1
f 13/6/1 8/6/1 12/6/1
f 14/6/1 10/6/1 9/6/1
f 15/7/1 11/7/1 10/7/1
f 15/6/1 10/6/1 14/6/1
f 15/7/1 12/7/1 11/7/1
f 15/7/1 13/7/1 12/7/1
f 16/6/1 8/6/1 13/6/1
f 16/7/1 13/7/1 15/7/1
f 17/6/1 8/6/1 16/6/1
f 18/7/1 16/7/1 15/7/1
f 19/7/1 16/7/1 18/7/1
f 25/6/1 21/6/1 20/6/1
f 26/6/1 21/6/1 25/6/1
f 27/6/1 23/6/1 22/6/1
f 28/6/1 23/6/1 27/6/1
f 30/6/1 26/6/1 25/6/1
f 30/6/1 25/6/1 24/6/1
f 31/5/1 27/5/1 26/5/1
f 31/6/1 26/6/1 30/6/1
f 32/6/1 29/6/1 28/6/1
f 32/5/1 27/5/1 31/5/1
f 32/6/1 28/6/1 27/6/1
f 33/6/1 29/6/1 32/6/1
f 35/6/1 30/6/1 24/6/1
f 36/6/1 30/6/1 35/6/1
f 37/6/1 30/6/1 36/6/1
f 38/6/1 29/6/1 33/6/1
f 39/6/1 29/6/1 38/6/1
f 40/6/1 29/6/1 39/6/1
f 44/6/1 35/6/1 34/6/1
f 44/6/1 36/6/1 35/6/1
f 45/6/1 36/6/1 44/6/1
f 46/6/1 36/6/1 45/6/1
f 47/7/1 43/7/1 42/7/1
f 47/6/1 44/6/1 43/6/1
f 47/6/1 45/6/1 44/6/1
f 48/6/1 45/6/1 47/6/1
f 51/7/1 41/7/1 40/7/1
f 51/7/1 40/7/1 39/7/1
f 52/7/1 48/7/1 47/7/1
f 52/7/1 49/7/1 48/7/1
f 52/7/1 47/7/1 42/7/1
f 53/7/1 49/7/1 52/7/1
f 54/7/1 49/7/1 53/7/1
f 55/7/1 51/7/1 50/7/1
f 56/7/1 41/7/1 51/7/1
f 56/7/1 51/7/1 55/7/1
f 57/7/1 41/7/1 56/7/1
f 58/4/1 53/4/1 52/4/1
f 59/7/1 54/7/1 53/7/1
f 59/4/1 53/4/1 58/4/1
f 59/7/1 55/7/1 54/7/1
f 59/7/1 56/7/1 55/7/1
f 60/7/1 56/7/1 59/7/1
f 61/7/1 56/7/1 60/7/1
f 62/7/1 56/7/1 61/7/1
f 63/7/1 59/7/1 58/7/1
f 63/7/1 60/7/1 59/7/1
f 64/6/1 61/6/1 60/6/1
f 64/7/1 60/7/1 63/7/1
f 65/6/1 61/6/1 64/6/1
f 68/5/1 67/5/1 66/5/1
f 69/5/1 67/5/1 68/5/1
f 76/6/1 71/6/1 70/6/1
f 77/6/1 71/6/1 76/6/1
f 78/7/1 73/7/1 72/7/1
f 79/7/1 73/7/1 78/7/1
f 82/6/1 75/6/1 74/6/1
f 83/6/1 75/6/1 82/6/1
f 84/7/1 81/7/1 80/7/1
f 85/7/1 81/7/1 84/7/1
f 86/6/1 85/6/1 84/6/1
f 87/6/1 85/6/1 86/6/1
f 92/7/1 89/7/1 88/7/1
f 93/7/1 89/7/1 92/7/1
f 96/7/1 91/7/1 90/7/1
f 97/7/1 91/7/1 96/7/1
f 98/6/1 95/6/1 94/6/1
f 98/6/1 96/6/1 95/6/1
f 99/6/1 96/6/1 98/6/1
f 102/5/1 101/5/1 100/5/1
f 103/5/1 101/5/1 102/5/1
f 106/6/1 105/6/1 104/6/1
f 107/6/1 105/6/1 106/6/1
f 110/7/1 109/7/1 108/7/1
f 112/7/1 110/7/1 108/7/1
f 112/7/1 111/7/1 110/7/1
f 113/7/1 111/7/1 112/7/1
f 114/7/1 111/7/1 113/7/1
f 118/7/1 115/7/1 114/7/1
f 118/7/1 114/7/1 113/7/1
f 119/7/1 115/7/1 118/7/1
f 120/7/1 117/7/1 116/7/1
f 121/7/1 117/7/1 120/7/1
f 122/7/1 115/7/1 119/7/1
f 123/7/1 115/7/1 122/7/1
f 124/7/1 115/7/1 123/7/1
f 126/7/1 125/7/1 124/7/1
f 126/7/1 124/7/1 123/7/1
f 127/7/1 125/7/1 126/7/1
f 128/7/1 126/7/1 123/7/1
f 129/7/1 126/7/1 128/7/1
f 134/6/1 131/6/1 130/6/1
f 135/6/1 131/6/1 134/6/1
f 136/6/1 133/6/1 132/6/1
f 137/6/1 133/6/1 136/6/1
f 140/6/1 139/6/1 138/6/1
f 141/6/1 139/6/1 140/6/1
f 142/6/2 143/6/2 146/6/2
f 146/6/2 143/6/2 147/6/2
f 144/6/2 145/6/2 148/6/2
f 148/6/2 145/6/2 149/6/2
f 150/6/2 151/6/2 152/6/2
f 152/6/2 151/6/2 153/6/2
f 154/5/2 155/5/2 156/5/2
f 156/5/2 155/5/2 157/5/2
f 158/6/2 159/6/2 160/6/2
f 160/6/2 159/6/2 161/6/2
f 162/7/2 163/7/2 164/7/2
f 162/7/2 164/7/2 166/7/2
f 164/7/2 165/7/2 166/7/2
f 166/7/2 165/7/2 167/7/2
f 167/7/2 165/7/2 168/7/2
f 168/7/2 169/7/2 172/7/2
f 167/7/2 168/7/2 172/7/2
f 172/7/2 169/7/2 173/7/2
f 170/7/2 171/7/2 174/7/2
f 174/7/2 171/7/2 175/7/2
f 173/7/2 169/7/2 176/7/2
f 176/7/2 169/7/2 177/7/2
f 177/7/2 169/7/2 178/7/2
f 178/7/2 179/7/2 180/7/2
f 177/7/2 178/7/2 180/7/2
f 180/7/2 179/7/2 181/7/2
f 177/7/2 180/7/2 182/7/2
f 182/7/2 180/7/2 183/7/2
f 184/5/2 185/5/2 186/5/2
f 186/5/2 185/5/2 187/5/2
f 188/6/2 189/6/2 194/6/2
f 194/6/2 189/6/2 195/6/2
f 190/7/2 191/7/2 196/7/2
f 196/7/2 191/7/2 197/7/2
f 192/6/2 193/6/2 200/6/2
f 200/6/2 193/6/2 201/6/2
f 198/7/2 199/7/2 202/7/2
f 202/7/2 199/7/2 203/7/2
f 202/6/2 203/6/2 204/6/2
f 204/6/2 203/6/2 205/6/2
f 206/7/2 207/7/2 210/7/2
f 210/7/2 207/7/2 211/7/2
f 208/7/2 209/7/2 214/7/2
f 214/7/2 209/7/2 215/7/2
f 212/6/2 213/6/2 216/6/2
f 213/6/2 214/6/2 216/6/2
f 216/6/2 214/6/2 217/6/2
f 218/6/2 219/6/2 223/6/2
f 223/6/2 219/6/2 224/6/2
f 220/6/2 221/6/2 225/6/2
f 225/6/2 221/6/2 226/6/2
f 223/6/2 224/6/2 228/6/2
f 222/6/2 223/6/2 228/6/2
f 224/5/2 225/5/2 229/5/2
f 228/6/2 224/6/2 229/6/2
f 226/6/2 227/6/2 230/6/2
f 229/5/2 225/5/2 230/5/2
f 225/6/2 226/6/2 230/6/2
f 230/6/2 227/6/2 231/6/2
f 222/6/2 228/6/2 233/6/2
f 233/6/2 228/6/2 234/6/2
f 234/6/2 228/6/2 235/6/2
f 231/6/2 227/6/2 236/6/2
f 236/6/2 227/6/2 237/6/2
f 237/6/2 227/6/2 238/6/2
f 232/6/2 233/6/2 242/6/2
f 233/6/2 234/6/2 242/6/2
f 242/6/2 234/6/2 243/6/2
f 243/6/2 234/6/2 244/6/2
f 240/7/2 241/7/2 245/7/2
f 241/6/2 242/6/2 245/6/2
f 242/6/2 243/6/2 245/6/2
f 245/6/2 243/6/2 246/6/2
f 238/7/2 239/7/2 249/7/2
f 237/7/2 238/7/2 249/7/2
f 245/7/2 246/7/2 250/7/2
f 246/7/2 247/7/2 250/7/2
f 240/7/2 245/7/2 250/7/2
f 250/7/2 247/7/2 251/7/2
f 251/7/2 247/7/2 252/7/2
f 248/7/2 249/7/2 253/7/2
f 249/7/2 239/7/2 254/7/2
f 253/7/2 249/7/2 254/7/2
f 254/7/2 239/7/2 255/7/2
f 250/4/2 251/4/2 256/4/2
f 251/7/2 252/7/2 257/7/2
f 256/4/2 251/4/2 257/4/2
f 252/7/2 253/7/2 257/7/2
f 253/7/2 254/7/2 257/7/2
f 257/7/2 254/7/2 258/7/2
f 258/7/2 254/7/2 259/7/2
f 259/7/2 254/7/2 260/7/2
f 256/7/2 257/7/2 261/7/2
f 257/7/2 258/7/2 261/7/2
f 258/6/2 259/6/2 262/6/2
f 261/7/2 258/7/2 262/7/2
f 262/6/2 259/6/2 263/6/2
f 264/6/2 265/6/2 267/6/2
f 267/6/2 265/6/2 268/6/2
f 268/6/2 265/6/2 269/6/2
f 269/6/2 265/6/2 270/6/2
f 266/6/2 267/6/2 273/6/2
f 267/6/2 268/6/2 273/6/2
f 268/7/2 269/7/2 274/7/2
f 273/6/2 268/6/2 274/6/2
f 270/6/2 271/6/2 275/6/2
f 274/7/2 269/7/2 275/7/2
f 269/6/2 270/6/2 275/6/2
f 275/6/2 271/6/2 276/6/2
f 272/6/2 273/6/2 277/6/2
f 273/7/2 274/7/2 278/7/2
f 277/6/2 273/6/2 278/6/2
f 274/7/2 275/7/2 278/7/2
f 275/7/2 276/7/2 278/7/2
f 276/6/2 271/6/2 279/6/2
f 278/7/2 276/7/2 279/7/2
f 279/6/2 271/6/2 280/6/2
f 278/7/2 279/7/2 281/7/2
f 281/7/2 279/7/2 282/7/2
f 286/7/3 284/7/3 283/7/3
f 287/6/3 285/6/3 284/6/3
f 287/7/3 284/7/3 286/7/3
f 288/6/3 285/6/3 287/6/3
f 289/6/3 287/6/3 286/6/3
f 290/2/3 288/2/3 287/2/3
f 290/6/3 287/6/3 289/6/3
f 291/2/3 288/2/3 290/2/3
f 292/7/3 290/7/3 289/7/3
f 293/6/3 291/6/3 290/6/3
f 293/7/3 290/7/3 292/7/3
f 294/6/3 291/6/3 293/6/3
f 299/7/3 296/7/3 295/7/3
f 300/7/3 296/7/3 299/7/3
f 301/4/3 297/4/3 296/4/3
f 301/7/3 296/7/3 300/7/3
f 302/7/3 298/7/3 297/7/3
f 302/4/3 297/4/3 301/4/3
f 303/3/3 302/3/3 301/3/3
f 304/7/3 298/7/3 302/7/3
f 304/3/3 302/3/3 303/3/3
f 305/7/3 304/7/3 303/7/3
f 306/7/3 298/7/3 304/7/3
f 306/7/3 304/7/3 305/7/3
f 309/3/3 306/3/3 305/3/3
f 310/7/3 298/7/3 306/7/3
f 310/3/3 306/3/3 309/3/3
f 311/7/3 308/7/3 307/7/3
f 311/7/3 309/7/3 308/7/3
f 312/4/3 310/4/3 309/4/3
f 312/7/3 309/7/3 311/7/3
f 313/7/3 298/7/3 310/7/3
f 313/4/3 310/4/3 312/4/3
f 314/7/3 298/7/3 313/7/3
f 319/6/3 318/6/3 317/6/3
f 320/6/3 318/6/3 319/6/3
f 323/6/3 316/6/3 315/6/3
f 324/6/3 316/6/3 323/6/3
f 325/6/3 322/6/3 321/6/3
f 326/6/3 322/6/3 325/6/3
f 329/6/3 328/6/3 327/6/3
f 330/6/3 328/6/3 329/6/3
f 333/6/3 332/6/3 331/6/3
f 334/6/3 332/6/3 333/6/3
f 338/6/3 336/6/3 335/6/3
f 339/6/3 338/6/3 337/6/3
f 340/6/3 336/6/3 338/6/3
f 340/6/3 338/6/3 339/6/3
f 341/6/3 336/6/3 340/6/3
f 342/6/3 336/6/3 341/6/3
f 347/6/3 344/6/3 343/6/3
f 348/6/3 344/6/3 347/6/3
f 349/6/3 346/6/3 345/6/3
f 350/6/3 346/6/3 349/6/3
f 351/6/3 349/6/3 345/6/3
f 352/6/3 349/6/3 351/6/3
f 355/6/3 354/6/3 353/6/3
f 357/6/3 355/6/3 353/6/3
f 357/6/3 356/6/3 355/6/3
f 358/6/3 356/6/3 357/6/3
f 361/6/3 360/6/3 359/6/3
f 362/6/3 360/6/3 361/6/3
f 369/6/3 364/6/3 363/6/3
f 370/6/3 364/6/3 369/6/3
f 371/7/3 366/7/3 365/7/3
f 372/7/3 366/7/3 371/7/3
f 373/6/3 368/6/3 367/6/3
f 374/6/3 368/6/3 373/6/3
f 377/6/3 376/6/3 375/6/3
f 378/6/3 376/6/3 377/6/3
f 383/6/3 380/6/3 379/6/3
f 384/6/3 380/6/3 383/6/3
f 385/7/3 382/7/3 381/7/3
f 386/7/3 382/7/3 385/7/3
f 389/6/3 388/6/3 387/6/3
f 390/6/3 388/6/3 389/6/3
f 393/6/3 392/6/3 391/6/3
f 394/6/3 392/6/3 393/6/3
f 397/5/3 396/5/3 395/5/3
f 398/5/3 396/5/3 397/5/3
f 401/7/3 400/7/3 399/7/3
f 402/7/3 400/7/3 401/7/3
f 405/5/3 404/5/3 403/5/3
f 406/5/3 404/5/3 405/5/3
f 409/6/3 408/6/3 407/6/3
f 410/6/3 408/6/3 409/6/3
f 413/6/3 412/6/3 411/6/3
f 414/6/3 412/6/3 413/6/3
f 417/7/3 416/7/3 415/7/3
f 418/7/3 416/7/3 417/7/3
f 421/7/3 420/7/3 419/7/3
f 422/7/3 420/7/3 421/7/3
f 425/7/3 424/7/3 423/7/3
f 426/7/3 424/7/3 425/7/3
f 427/6/4 428/6/4 429/6/4
f 429/6/4 428/6/4 430/6/4
f 430/6/4 431/6/4 432/6/4
f 432/6/4 431/6/4 433/6/4
f 434/6/4 435/6/4 437/6/4
f 437/6/4 435/6/4 438/6/4
f 436/6/4 437/6/4 439/6/4
f 439/6/4 437/6/4 440/6/4
f 441/7/4 442/7/4 443/7/4
f 443/7/4 442/7/4 444/7/4
f 445/6/4 446/6/4 447/6/4
f 447/6/4 446/6/4 448/6/4
f 449/6/4 450/6/4 451/6/4
f 451/6/4 450/6/4 452/6/4
f 453/5/4 454/5/4 455/5/4
f 455/5/4 454/5/4 456/5/4
f 457/5/4 458/5/4 459/5/4
f 459/5/4 458/5/4 460/5/4
f 461/6/4 462/6/4 465/6/4
f 465/6/4 462/6/4 466/6/4
f 463/7/4 464/7/4 467/7/4
f 467/7/4 464/7/4 468/7/4
f 469/6/4 470/6/4 473/6/4
f 473/6/4 470/6/4 474/6/4
f 471/7/4 472/7/4 475/7/4
f 475/7/4 472/7/4 476/7/4
f 477/6/4 478/6/4 481/6/4
f 481/6/4 478/6/4 482/6/4
f 479/6/4 480/6/4 483/6/4
f 483/6/4 480/6/4 484/6/4
f 485/7/4 486/7/4 489/7/4
f 489/7/4 486/7/4 490/7/4
f 487/6/4 488/6/4 491/6/4
f 491/6/4 488/6/4 492/6/4
f 493/6/4 494/6/4 495/6/4
f 495/6/4 494/6/4 496/6/4
f 497/6/4 498/6/4 501/6/4
f 501/6/4 498/6/4 502/6/4
f 499/7/4 500/7/4 503/7/4
f 503/7/4 500/7/4 504/7/4
f 497/6/4 501/6/4 505/6/4
f 497/6/4 505/6/4 509/6/4
f 505/6/4 506/6/4 509/6/4
f 509/6/4 506/6/4 510/6/4
f 507/7/4 508/7/4 511/7/4
f 511/7/4 508/7/4 512/7/4
f 513/7/4 514/7/4 516/7/4
f 516/7/4 514/7/4 517/7/4
f 515/7/4 516/7/4 519/7/4
f 517/7/4 518/7/4 519/7/4
f 516/7/4 517/7/4 519/7/4
f 519/7/4 518/7/4 520/7/4
f 520/7/4 518/7/4 521/7/4
f 515/7/4 519/7/4 522/7/4
f 519/1/4 520/1/4 522/1/4
f 522/1/4 520/1/4 523/1/4
f 521/7/4 518/7/4 524/7/4
f 522/7/4 523/7/4 525/7/4
f 523/7/4 524/7/4 525/7/4
f 515/7/4 522/7/4 525/7/4
f 525/7/4 524/7/4 526/7/4
f 524/7/4 518/7/4 527/7/4
f 526/7/4 524/7/4 527/7/4
f 527/7/4 518/7/4 528/7/4
f 526/7/4 527/7/4 529/7/4
f 529/7/4 527/7/4 530/7/4
f 531/7/4 532/7/4 533/7/4
f 533/7/4 532/7/4 534/7/4
f 535/7/4 536/7/4 537/7/4
f 537/7/4 536/7/4 538/7/4
f 539/7/4 540/7/4 543/7/4
f 543/7/4 540/7/4 544/7/4
f 541/7/4 542/7/4 545/7/4
f 545/7/4 542/7/4 546/7/4
f 547/7/4 548/7/4 549/7/4
f 549/7/4 548/7/4 550/7/4
f 555/6/5 552/6/5 551/6/5
f 556/6/5 552/6/5 555/6/5
f 557/6/5 554/6/5 553/6/5
f 558/6/5 554/6/5 557/6/5
f 563/6/5 560/6/5 559/6/5
f 564/6/5 560/6/5 563/6/5
f 565/6/5 562/6/5 561/6/5
f 566/6/5 562/6/5 565/6/5
f 569/5/5 568/5/5 567/5/5
f 570/5/5 568/5/5 569/5/5
f 573/5/5 572/5/5 571/5/5
f 574/5/5 572/5/5 573/5/5
f 575/5/5 573/5/5 571/5/5
f 576/5/5 572/5/5 574/5/5
f 577/5/5 575/5/5 571/5/5
f 577/5/5 576/5/5 575/5/5
f 578/5/5 572/5/5 576/5/5
f 578/5/5 576/5/5 577/5/5
f 582/6/5 580/6/5 579/6/5
f 583/6/5 580/6/5 582/6/5
f 585/6/5 582/6/5 581/6/5
f 585/6/5 584/6/5 583/6/5
f 585/6/5 583/6/5 582/6/5
f 586/6/5 584/6/5 585/6/5
f 587/6/5 584/6/5 586/6/5
f 588/6/5 584/6/5 587/6/5
f 590/6/5 587/6/5 586/6/5
f 591/6/5 587/6/5 590/6/5
f 593/5/5 590/5/5 589/5/5
f 593/5/5 592/5/5 591/5/5
f 593/5/5 591/5/5 590/5/5
f 594/5/5 592/5/5 593/5/5
f 595/5/5 593/5/5 589/5/5
f 596/5/5 592/5/5 594/5/5
f 597/5/5 595/5/5 589/5/5
f 597/5/5 596/5/5 595/5/5
f 598/5/5 596/5/5 597/5/5
f 599/5/5 596/5/5 598/5/5
f 600/5/5 592/5/5 596/5/5
f 600/5/5 596/5/5 599/5/5
f 602/6/5 599/6/5 598/6/5
f 603/6/5 599/6/5 602/6/5
f 605/6/5 602/6/5 601/6/5
f 605/6/5 604/6/5 603/6/5
f 605/6/5 603/6/5 602/6/5
f 606/6/5 604/6/5 605/6/5
f 611/6/5 608/6/5 607/6/5
f 612/6/5 608/6/5 611/6/5
f 613/6/5 610/6/5 609/6/5
f 614/6/5 610/6/5 613/6/5
f 619/6/5 616/6/5 615/6/5
f 620/6/5 618/6/5 617/6/5
f 621/6/5 619/6/5 615/6/5
f 622/6/5 618/6/5 620/6/5
f 623/6/5 621/6/5 615/6/5
f 624/6/5 621/6/5 623/6/5
f 625/6/5 618/6/5 622/6/5
f 626/6/5 618/6/5 625/6/5
f 629/7/5 628/7/5 627/7/5
f 630/7/5 628/7/5 629/7/5
f 634/6/5 632/6/5 631/6/5
f 635/6/5 632/6/5 634/6/5
f 637/6/5 634/6/5 633/6/5
f 637/6/5 636/6/5 635/6/5
f 637/6/5 635/6/5 634/6/5
f 638/6/5 636/6/5 637/6/5
f 639/6/5 637/6/5 633/6/5
f 640/6/5 637/6/5 639/6/5
f 641/6/5 636/6/5 638/6/5
f 642/6/5 636/6/5 641/6/5
f 647/6/5 644/6/5 643/6/5
f 648/6/5 644/6/5 647/6/5
f 649/6/5 646/6/5 645/6/5
f 650/6/5 646/6/5 649/6/5
f 655/6/5 652/6/5 651/6/5
f 656/6/5 652/6/5 655/6/5
f 657/6/5 654/6/5 653/6/5
f 658/6/5 654/6/5 657/6/5
f 663/7/5 660/7/5 659/7/5
f 664/7/5 660/7/5 663/7/5
f 665/7/5 662/7/5 661/7/5
f 666/7/5 662/7/5 665/7/5
f 672/7/5 668/7/5 667/7/5
f 673/6/5 669/6/5 668/6/5
f 673/7/5 668/7/5 672/7/5
f 674/7/5 670/7/5 669/7/5
f 674/6/5 669/6/5 673/6/5
f 675/7/5 670/7/5 674/7/5
f 677/7/5 672/7/5 671/7/5
f 678/6/5 673/6/5 672/6/5
f 678/7/5 672/7/5 677/7/5
f 678/6/5 674/6/5 673/6/5
f 678/6/5 675/6/5 674/6/5
f 679/7/5 676/7/5 675/7/5
f 679/6/5 675/6/5 678/6/5
f 680/7/5 676/7/5 679/7/5
f 681/6/5 678/6/5 677/6/5
f 682/6/5 678/6/5 681/6/5
f 683/6/5 680/6/5 679/6/5
f 684/6/5 680/6/5 683/6/5
f 689/6/5 686/6/5 685/6/5
f 690/6/5 686/6/5 689/6/5
f 691/6/5 688/6/5 687/6/5
f 692/6/5 688/6/5 691/6/5
f 695/7/5 694/7/5 693/7/5
f 696/7/5 694/7/5 695/7/5
f 699/7/5 698/7/5 697/7/5
f 700/7/5 698/7/5 699/7/5
f 703/7/5 702/7/5 701/7/5
f 704/7/5 702/7/5 703/7/5
f 707/7/5 706/7/5 705/7/5
f 708/7/5 706/7/5 707/7/5
f 709/6/6 710/6/6 713/6/6
f 713/6/6 710/6/6 714/6/6
f 711/6/6 712/6/6 715/6/6
f 715/6/6 712/6/6 716/6/6
f 717/6/6 718/6/6 721/6/6
f 721/6/6 718/6/6 722/6/6
f 719/6/6 720/6/6 723/6/6
f 723/6/6 720/6/6 724/6/6
f 725/6/6 726/6/6 729/6/6
f 726/2/6 727/2/6 730/2/6
f 729/6/6 726/6/6 730/6/6
f 727/6/6 728/6/6 731/6/6
f 730/2/6 727/2/6 731/2/6
f 731/6/6 728/6/6 732/6/6
f 733/7/6 734/7/6 737/7/6
f 737/7/6 734/7/6 738/7/6
f 735/7/6 736/7/6 739/7/6
f 739/7/6 736/7/6 740/7/6
f 741/7/6 742/7/6 745/7/6
f 745/7/6 742/7/6 746/7/6
f 743/7/6 744/7/6 749/7/6
f 749/7/6 744/7/6 750/7/6
f 747/7/6 748/7/6 751/7/6
f 751/7/6 748/7/6 752/7/6
f 753/7/6 754/7/6 757/7/6
f 755/7/6 756/7/6 758/7/6
f 757/7/6 758/7/6 759/7/6
f 759/7/6 758/7/6 760/7/6
f 757/7/6 759/7/6 761/7/6
f 760/7/6 758/7/6 762/7/6
f 753/7/6 757/7/6 763/7/6
f 761/7/6 762/7/6 763/7/6
f 757/7/6 761/7/6 763/7/6
f 763/7/6 762/7/6 764/7/6
f 762/7/6 758/7/6 765/7/6
f 764/7/6 762/7/6 765/7/6
f 758/7/6 756/7/6 765/7/6
f 765/7/6 756/7/6 766/7/6
f 764/7/6 765/7/6 767/7/6
f 767/7/6 765/7/6 768/7/6
f 769/7/6 770/7/6 771/7/6
f 771/7/6 770/7/6 772/7/6
f 773/7/6 774/7/6 775/7/6
f 775/7/6 774/7/6 776/7/6
f 776/7/6 774/7/6 777/7/6
f 777/7/6 774/7/6 778/7/6
f 773/7/6 775/7/6 779/7/6
f 779/7/6 775/7/6 780/7/6
f 778/7/6 774/7/6 781/7/6
f 781/7/6 774/7/6 782/7/6
f 779/6/6 780/6/6 783/6/6
f 783/6/6 780/6/6 784/6/6
f 776/7/6 777/7/6 785/7/6
f 785/7/6 777/7/6 786/7/6
f 781/6/6 782/6/6 787/6/6
f 787/6/6 782/6/6 788/6/6
f 785/7/6 786/7/6 789/7/6
f 786/7/6 787/7/6 789/7/6
f 784/7/6 785/7/6 789/7/6
f 789/7/6 787/7/6 790/7/6
f 791/7/6 792/7/6 793/7/6
f 793/7/6 792/7/6 794/7/6
f 795/7/6 796/7/6 797/7/6
f 797/7/6 796/7/6 798/7/6
f 799/6/6 800/6/6 803/6/6
f 803/6/6 800/6/6 804/6/6
f 801/6/6 802/6/6 805/6/6
f 805/6/6 802/6/6 806/6/6
f 807/7/6 808/7/6 809/7/6
f 809/7/6 808/7/6 810/7/6
f 811/7/6 812/7/6 813/7/6
f 813/7/6 812/7/6 814/7/6
